<svg width="32" height="32" viewBox="0 0 32 32" fill="none" xmlns="http://www.w3.org/2000/svg">
<g id="Facebook">
<path id="Subtract" fill-rule="evenodd" clip-rule="evenodd" d="M16 32C24.8366 32 32 24.8366 32 16C32 7.16344 24.8366 0 16 0C7.16344 0 0 7.16344 0 16C0 24.8366 7.16344 32 16 32ZM17.2277 16.7023V24L14.3166 23.9984V16.7056H11.8773V13.8666H14.3166V11.7674C14.1296 9.88501 15.4929 8.20554 17.3609 8.01713C17.5551 7.99773 17.7508 7.99449 17.9458 8.00905C18.6728 8.00581 19.3998 8.0422 20.1227 8.11821V10.6621H18.6255C17.454 10.6621 17.2277 11.2232 17.2277 12.0472V13.8625H20.0216L19.6573 16.7023H17.2277Z" fill="white"/>
</g>
</svg>
