<svg width="157" height="56" viewBox="0 0 157 56" fill="none" xmlns="http://www.w3.org/2000/svg">
<g id="Logo">
<path id="Vector" d="M99.9567 28.8786H86.4658L84.3031 34.7074H75.0859L88.165 1.70898H98.3606L111.44 34.7074H102.12L99.9567 28.8786ZM97.6911 22.6738L93.2113 10.5932L88.7829 22.6738H97.6911Z" fill="white"/>
<path id="Vector_2" d="M141.091 20.6291C142.36 22.1178 142.996 23.8181 142.996 25.7292C142.996 28.4871 141.94 30.6729 139.829 32.2866C137.718 33.901 134.774 34.7074 130.998 34.7074H114.16V1.70898H130.432C134.105 1.70898 136.979 2.47732 139.057 4.01231C141.133 5.54809 142.172 7.63179 142.172 10.2642C142.172 12.2076 141.614 13.8212 140.499 15.1058C139.383 16.3911 137.898 17.2842 136.045 17.7852C138.138 18.1928 139.82 19.141 141.091 20.6291ZM122.965 15.0588H128.733C130.174 15.0588 131.281 14.7694 132.054 14.1892C132.826 13.6097 133.212 12.7555 133.212 11.6274C133.212 10.4992 132.826 9.63763 132.054 9.04198C131.281 8.44705 130.174 8.14886 128.733 8.14886H122.965V15.0588ZM132.878 27.3039C133.684 26.6929 134.088 25.8078 134.088 24.648C134.088 23.4891 133.667 22.5798 132.826 21.9217C131.985 21.2636 130.826 20.9346 129.35 20.9346H122.965V28.2206H129.453C130.929 28.2206 132.071 27.915 132.878 27.3039Z" fill="white"/>
<path id="Vector_3" d="M156.191 1.75391H146.473V34.6981H156.191V1.75391Z" fill="white"/>
<path id="Vector_4" d="M0.420509 33.7185L2.07058 33.624C4.05469 33.4821 5.60645 32.4456 6.37758 30.2767L16.586 2.64828H12.7504C8.39843 2.64828 4.78556 6.04289 1.82894 11.0875H0.893151L4.8827 1.70508H33.3307L30.6513 11.0875H29.7629C30.3587 6.18354 28.9858 2.64828 24.6812 2.64828H21.0778L11.0779 29.8051C10.9239 30.2294 10.8173 30.6537 10.7639 31.0308C10.5318 32.6808 11.3882 33.5767 13.0655 33.624L14.9241 33.7185L14.5059 34.7079H0L0.420509 33.7185Z" fill="white"/>
<path id="Vector_5" d="M52.9914 24.431C54.104 16.523 60.4633 10.4531 67.9231 10.4531C71.914 10.4531 74.399 12.3695 73.9599 15.486C73.3934 19.5109 68.2178 22.5302 57.1495 24.2074C56.7598 28.3296 58.2573 31.8763 62.7221 31.8763C65.337 31.8763 68.5124 30.5812 70.55 27.5619H71.3102C68.7903 32.9781 65.0123 34.9905 60.4994 34.9905C56.7869 34.9905 52.0809 30.9008 52.9914 24.431ZM69.9077 14.9105C70.2457 12.5136 69.2522 11.1247 67.0198 11.1247C62.2205 11.1247 58.0733 17.6415 57.2229 23.346C65.2312 22.1469 69.3219 19.0796 69.9077 14.9105Z" fill="white"/>
<path id="Vector_6" d="M51.7114 29.818C49.4632 32.6301 44.04 34.5778 47.1721 27.6547L50.4445 19.0405C50.8872 17.9039 51.1791 16.8157 51.319 15.8226C51.7723 12.6035 50.4789 10.4737 46.9621 10.4737C44.15 10.4737 41.1991 11.7991 37.8281 14.7808L43.3481 0L34.8134 1.70386L34.5014 2.48097H34.9689C36.4687 2.48097 37.2934 3.28547 37.0666 4.89434C37.0133 5.27281 36.9137 5.65144 36.7535 6.12474L26.2168 34.7064H30.576L37.3725 16.0114C39.4204 14.1187 42.1364 12.7935 44.2462 12.7935C46.5432 12.7935 47.1733 14.3075 46.8671 16.4847C46.7271 17.479 46.3806 18.6146 45.9275 19.845L42.6739 28.3168C42.2397 29.406 41.9667 30.3517 41.8399 31.2511C41.5207 33.5234 42.3916 34.991 45.1585 34.991C47.7449 34.991 49.9254 33.9506 52.4621 29.818H51.7114Z" fill="white"/>
<path id="Vector_7" d="M5.46307 51.2786H1.98796L1.34725 53.0504H0.25L3.13084 45.1289H4.33119L7.20024 53.0504H6.103L5.46307 51.2786ZM5.16554 50.4325L3.72513 46.4088L2.28471 50.4325H5.16554Z" fill="white"/>
<path id="Vector_8" d="M14.0125 46.7871V53.051H12.9727V52.1254C12.7744 52.4449 12.4981 52.6952 12.1439 52.8739C11.7897 53.0526 11.3985 53.1423 10.9719 53.1423C10.4847 53.1423 10.0462 53.0416 9.6574 52.8393C9.26857 52.6378 8.96239 52.3347 8.73727 51.9309C8.51215 51.5271 8.40039 51.0352 8.40039 50.4559V46.7871H9.42914V50.3189C9.42914 50.936 9.58499 51.4107 9.89748 51.742C10.21 52.0734 10.6366 52.2395 11.1781 52.2395C11.7338 52.2395 12.1722 52.0679 12.4926 51.7247C12.8122 51.3823 12.9727 50.8833 12.9727 50.2276V46.7871L14.0125 46.7871Z" fill="white"/>
<path id="Vector_9" d="M17.0427 47.6443V51.3367C17.0427 51.6413 17.1072 51.8562 17.2371 51.9821C17.367 52.108 17.5913 52.171 17.9117 52.171H18.6775V53.051H17.7401C17.1608 53.051 16.7263 52.918 16.4374 52.6512C16.1477 52.3843 16.0029 51.9459 16.0029 51.3367V47.6443H15.1914V46.7871H16.0029V45.209H17.0427V46.7871H18.6775V47.6443H17.0427Z" fill="white"/>
<path id="Vector_10" d="M24.3233 46.9752C24.7043 47.1775 25.0034 47.4805 25.2207 47.8843C25.4379 48.2881 25.5465 48.7793 25.5465 49.3586V53.0509H24.5178V49.5073C24.5178 48.8824 24.3611 48.4038 24.0486 48.0724C23.7362 47.741 23.3095 47.5757 22.7688 47.5757C22.2202 47.5757 21.7833 47.7466 21.4598 48.0897C21.1355 48.4329 20.9742 48.9319 20.9742 49.5876V53.0509H19.9336V44.5918H20.9742V47.6781C21.1796 47.3585 21.4637 47.1106 21.8258 46.935C22.1879 46.7603 22.5933 46.6721 23.0427 46.6721C23.5158 46.6721 23.9424 46.7737 24.3233 46.9752Z" fill="white"/>
<path id="Vector_11" d="M28.3875 52.753C27.9113 52.487 27.5382 52.1076 27.2675 51.6156C26.9967 51.1245 26.8613 50.5546 26.8613 49.9068C26.8613 49.2669 27.0007 48.701 27.2793 48.2098C27.5571 47.7179 27.9365 47.3408 28.4167 47.0779C28.8968 46.815 29.4336 46.6836 30.0279 46.6836C30.6222 46.6836 31.1598 46.815 31.6399 47.0779C32.12 47.3408 32.4986 47.7163 32.7773 48.2035C33.0551 48.6915 33.1945 49.259 33.1945 49.9068C33.1945 50.5546 33.052 51.1245 32.7655 51.6156C32.4798 52.1076 32.0933 52.487 31.6053 52.753C31.1181 53.0199 30.5765 53.1537 29.9822 53.1537C29.3958 53.1537 28.8637 53.0199 28.3875 52.753ZM31.0338 51.9761C31.3612 51.8006 31.6265 51.5377 31.8288 51.1875C32.0303 50.8372 32.131 50.4098 32.131 49.9068C32.131 49.4039 32.0326 48.9772 31.8343 48.627C31.6359 48.2759 31.377 48.0154 31.0566 47.8438C30.7371 47.6722 30.39 47.5864 30.0169 47.5864C29.6359 47.5864 29.2872 47.6722 28.9708 47.8438C28.6544 48.0154 28.4009 48.2759 28.2104 48.627C28.0199 48.9772 27.9247 49.4038 27.9247 49.9068C27.9247 50.4177 28.0184 50.8482 28.2049 51.1985C28.3914 51.5495 28.641 51.8101 28.9535 51.9817C29.2659 52.1533 29.6091 52.239 29.9822 52.239C30.3553 52.239 30.7064 52.1517 31.0338 51.9761Z" fill="white"/>
<path id="Vector_12" d="M36.3902 46.9694C36.7286 46.771 37.1426 46.6719 37.6299 46.6719V47.7463H37.3559C36.1894 47.7463 35.607 48.3791 35.607 49.644V53.0507H34.5664V46.7868H35.607V47.8037C35.7896 47.4456 36.0509 47.1678 36.3902 46.9694Z" fill="white"/>
<path id="Vector_13" d="M38.8644 45.5637C38.7275 45.426 38.6582 45.2583 38.6582 45.0607C38.6582 44.8624 38.7275 44.6947 38.8644 44.5578C39.0014 44.42 39.169 44.3516 39.3674 44.3516C39.5579 44.3516 39.72 44.42 39.853 44.5578C39.9861 44.6947 40.053 44.8624 40.053 45.0607C40.053 45.2583 39.9861 45.426 39.853 45.5637C39.72 45.7007 39.5579 45.7691 39.3674 45.7691C39.169 45.7691 39.0014 45.7007 38.8644 45.5637ZM39.8704 46.7869V53.0507H38.8298V46.7869H39.8704Z" fill="white"/>
<path id="Vector_14" d="M42.9099 47.6443V51.3367C42.9099 51.6413 42.9744 51.8562 43.1043 51.9821C43.2342 52.108 43.4585 52.171 43.7789 52.171H44.5447V53.051H43.6073C43.028 53.051 42.5935 52.918 42.3046 52.6512C42.0149 52.3843 41.8701 51.9459 41.8701 51.3367V47.6443H41.0586V46.7871H41.8701V45.209H42.9099V46.7871H44.5447V47.6443H42.9099Z" fill="white"/>
<path id="Vector_15" d="M51.1992 46.7871L47.4266 56.0003H46.3522L47.5872 52.9825L45.0605 46.7871H46.2152L48.1815 51.8624L50.1249 46.7871H51.1992Z" fill="white"/>
<path id="Vector_16" d="M60.0732 49.3021C60.3132 49.4926 60.5037 49.7287 60.6446 50.0105C60.7855 50.2923 60.8563 50.5938 60.8563 50.9133C60.8563 51.3179 60.7532 51.6816 60.5478 52.0051C60.3416 52.3294 60.0424 52.5844 59.6505 52.7709C59.2577 52.9583 58.7949 53.0512 58.2612 53.0512H55.2891V45.084H58.1471C58.6878 45.084 59.1491 45.1737 59.53 45.3524C59.911 45.5319 60.1967 45.7735 60.3872 46.0781C60.5777 46.3827 60.6729 46.7259 60.6729 47.1069C60.6729 47.5799 60.5454 47.9703 60.2904 48.2789C60.0346 48.5874 59.6977 48.8102 59.279 48.9471C59.5686 48.9928 59.8331 49.1116 60.0732 49.3021ZM56.3296 48.5245H58.0786C58.5658 48.5245 58.9437 48.4103 59.2105 48.1813C59.4765 47.953 59.6104 47.6366 59.6104 47.2328C59.6104 46.829 59.4765 46.5126 59.2105 46.2843C58.9437 46.0553 58.5588 45.9411 58.0558 45.9411H56.3296V48.5245ZM59.3813 51.828C59.6709 51.584 59.8158 51.2447 59.8158 50.811C59.8158 50.3687 59.6631 50.02 59.3585 49.7649C59.0539 49.5091 58.6461 49.3816 58.1353 49.3816H56.3296V52.194H58.1699C58.6878 52.194 59.0916 52.072 59.3813 51.828Z" fill="white"/>
<path id="Vector_17" d="M67.9785 50.3075H62.9716C63.0094 50.9246 63.2212 51.4063 63.606 51.7534C63.9909 52.0997 64.4577 52.2729 65.0063 52.2729C65.4558 52.2729 65.8312 52.1682 66.1327 51.9589C66.4333 51.7495 66.6451 51.4693 66.7671 51.119H67.8871C67.7195 51.7212 67.3842 52.2107 66.8812 52.5878C66.3782 52.9648 65.7533 53.1537 65.0063 53.1537C64.412 53.1537 63.8807 53.0199 63.4116 52.753C62.9433 52.487 62.5757 52.1076 62.3089 51.6157C62.042 51.1245 61.9082 50.5546 61.9082 49.9068C61.9082 49.259 62.0381 48.6915 62.297 48.2035C62.556 47.7163 62.9204 47.3408 63.3888 47.0779C63.8579 46.815 64.3963 46.6836 65.0063 46.6836C65.6006 46.6836 66.1264 46.8135 66.5837 47.0724C67.041 47.3314 67.3936 47.688 67.6416 48.1405C67.8887 48.5947 68.0131 49.1071 68.0131 49.6786C68.0131 49.8769 68.0013 50.0863 67.9785 50.3075ZM66.675 48.4381C66.5003 48.1524 66.2618 47.9351 65.9611 47.7864C65.6596 47.6376 65.3267 47.5636 64.9607 47.5636C64.4349 47.5636 63.987 47.7313 63.6179 48.0666C63.2479 48.4019 63.0362 48.8671 62.9834 49.4613H66.9379C66.9379 49.0654 66.8506 48.7238 66.675 48.4381Z" fill="white"/>
<path id="Vector_18" d="M74.7813 46.7871L71.0086 56.0003H69.9342L71.1692 52.9825L68.6426 46.7871H69.7973L71.7635 51.8624L73.7069 46.7871H74.7813Z" fill="white"/>
<path id="Vector_19" d="M76.9578 52.753C76.4816 52.487 76.1085 52.1076 75.8378 51.6156C75.567 51.1245 75.4316 50.5546 75.4316 49.9068C75.4316 49.2669 75.571 48.701 75.8496 48.2098C76.1274 47.7179 76.5068 47.3408 76.987 47.0779C77.4671 46.815 78.0039 46.6836 78.5982 46.6836C79.1925 46.6836 79.7301 46.815 80.2102 47.0779C80.6904 47.3408 81.069 47.7163 81.3476 48.2035C81.6254 48.6915 81.7648 49.259 81.7648 49.9068C81.7648 50.5546 81.6223 51.1245 81.3358 51.6156C81.0501 52.1076 80.6636 52.487 80.1756 52.753C79.6884 53.0199 79.1468 53.1537 78.5526 53.1537C77.9662 53.1537 77.434 53.0199 76.9578 52.753ZM79.6041 51.9761C79.9316 51.8006 80.1968 51.5377 80.3991 51.1875C80.6006 50.8372 80.7013 50.4098 80.7013 49.9068C80.7013 49.4039 80.603 48.9772 80.4046 48.627C80.2063 48.2759 79.9473 48.0154 79.6269 47.8438C79.3074 47.6722 78.9603 47.5864 78.5872 47.5864C78.2062 47.5864 77.8575 47.6722 77.5411 47.8438C77.2247 48.0154 76.9712 48.2759 76.7807 48.627C76.5903 48.9772 76.495 49.4038 76.495 49.9068C76.495 50.4177 76.5887 50.8482 76.7752 51.1985C76.9618 51.5495 77.2113 51.8101 77.5238 51.9817C77.8363 52.1533 78.1794 52.239 78.5525 52.239C78.9256 52.239 79.2767 52.1517 79.6041 51.9761Z" fill="white"/>
<path id="Vector_20" d="M88.0412 47.3638C88.5135 47.825 88.7496 48.4893 88.7496 49.3583V53.0507H87.7209V49.5071C87.7209 48.8821 87.5643 48.4035 87.2518 48.0722C86.9393 47.7408 86.5127 47.5755 85.9719 47.5755C85.4233 47.5755 84.9864 47.7463 84.6629 48.0895C84.3387 48.4327 84.1773 48.9317 84.1773 49.5874V53.0507H83.1367V46.7868H84.1773V47.6778C84.3827 47.3583 84.6629 47.1103 85.0171 46.9348C85.3714 46.76 85.7617 46.6719 86.1892 46.6719C86.9511 46.6719 87.5682 46.9025 88.0412 47.3638Z" fill="white"/>
<path id="Vector_21" d="M90.4513 48.2102C90.7103 47.7261 91.0668 47.3507 91.5202 47.0838C91.9736 46.817 92.4821 46.684 93.0464 46.684C93.5337 46.684 93.9878 46.7965 94.4066 47.0208C94.8253 47.246 95.1457 47.5411 95.3669 47.9071V44.5918H96.4184V53.0509H95.3669V51.8734C95.1614 52.2473 94.856 52.5535 94.4522 52.7935C94.0484 53.0336 93.5762 53.154 93.0346 53.154C92.4789 53.154 91.9736 53.0163 91.5202 52.7424C91.0669 52.4677 90.7103 52.0836 90.4513 51.5877C90.1924 51.0926 90.0625 50.5282 90.0625 49.8962C90.0625 49.2554 90.1924 48.6943 90.4513 48.2102ZM95.0811 48.673C94.8907 48.3227 94.6333 48.0535 94.3097 47.867C93.9855 47.6805 93.6297 47.5868 93.2408 47.5868C92.852 47.5868 92.4978 47.6781 92.1774 47.8615C91.8579 48.0441 91.6021 48.3109 91.4116 48.6612C91.2211 49.0122 91.1258 49.4239 91.1258 49.8962C91.1258 50.3763 91.2211 50.7935 91.4116 51.1477C91.6021 51.5019 91.8579 51.7727 92.1774 51.9592C92.4978 52.1457 92.852 52.2394 93.2408 52.2394C93.6297 52.2394 93.9854 52.1457 94.3097 51.9592C94.6332 51.7727 94.8906 51.5019 95.0811 51.1477C95.2716 50.7935 95.3669 50.3803 95.3669 49.9072C95.3669 49.4349 95.2716 49.0233 95.0811 48.673Z" fill="white"/>
<path id="Vector_22" d="M102.273 45.084V53.0512H101.232V45.084H102.273Z" fill="white"/>
<path id="Vector_23" d="M108.948 47.3638C109.42 47.825 109.656 48.4893 109.656 49.3583V53.0507H108.627V49.5071C108.627 48.8821 108.471 48.4035 108.158 48.0722C107.846 47.7408 107.419 47.5755 106.878 47.5755C106.33 47.5755 105.893 47.7463 105.569 48.0895C105.245 48.4327 105.084 48.9317 105.084 49.5874V53.0507H104.043V46.7868H105.084V47.6778C105.289 47.3583 105.569 47.1103 105.923 46.9348C106.278 46.76 106.668 46.6719 107.095 46.6719C107.857 46.6719 108.474 46.9025 108.948 47.3638Z" fill="white"/>
<path id="Vector_24" d="M112.286 52.9073C111.905 52.7436 111.604 52.5153 111.383 52.2217C111.162 51.9281 111.04 51.5913 111.018 51.2103H112.092C112.122 51.5228 112.269 51.7778 112.532 51.9762C112.795 52.1745 113.14 52.2729 113.566 52.2729C113.962 52.2729 114.275 52.1855 114.504 52.01C114.732 51.8353 114.847 51.6141 114.847 51.3473C114.847 51.0733 114.725 50.8695 114.481 50.7357C114.237 50.6026 113.86 50.4712 113.349 50.3413C112.885 50.2193 112.505 50.0957 112.212 49.9698C111.918 49.8439 111.667 49.6573 111.458 49.4094C111.247 49.1622 111.143 48.8364 111.143 48.4326C111.143 48.1122 111.238 47.8194 111.428 47.5526C111.619 47.2857 111.89 47.074 112.241 46.9182C112.591 46.7615 112.991 46.6836 113.44 46.6836C114.134 46.6836 114.694 46.8591 115.121 47.2094C115.547 47.5596 115.776 48.0398 115.807 48.6498H114.767C114.744 48.3224 114.612 48.0595 114.372 47.8611C114.132 47.6627 113.81 47.5636 113.406 47.5636C113.033 47.5636 112.736 47.6438 112.515 47.8036C112.294 47.9634 112.183 48.1736 112.183 48.4326C112.183 48.638 112.25 48.808 112.383 48.941C112.516 49.0748 112.684 49.1811 112.886 49.2614C113.088 49.3409 113.368 49.4306 113.726 49.5298C114.176 49.6518 114.541 49.7714 114.824 49.8895C115.106 50.0083 115.347 50.1854 115.55 50.4216C115.751 50.6577 115.856 50.9663 115.864 51.3472C115.864 51.6904 115.769 51.999 115.578 52.2729C115.388 52.5476 115.119 52.7633 114.772 52.9191C114.426 53.075 114.027 53.1537 113.578 53.1537C113.098 53.1537 112.667 53.0718 112.286 52.9073Z" fill="white"/>
<path id="Vector_25" d="M122.882 46.7871V53.051H121.842V52.1254C121.644 52.4449 121.367 52.6952 121.013 52.8739C120.659 53.0526 120.268 53.1423 119.841 53.1423C119.354 53.1423 118.915 53.0416 118.527 52.8393C118.138 52.6378 117.832 52.3347 117.606 51.9309C117.381 51.5271 117.27 51.0352 117.27 50.4559V46.7871H118.298V50.3189C118.298 50.936 118.454 51.4107 118.767 51.742C119.079 52.0734 119.506 52.2395 120.047 52.2395C120.603 52.2395 121.041 52.0679 121.362 51.7247C121.681 51.3823 121.842 50.8833 121.842 50.2276V46.7871L122.882 46.7871Z" fill="white"/>
<path id="Vector_26" d="M126.466 46.9694C126.805 46.771 127.219 46.6719 127.706 46.6719V47.7463H127.432C126.266 47.7463 125.683 48.3791 125.683 49.644V53.0507H124.643V46.7868H125.683V47.8037C125.866 47.4456 126.127 47.1678 126.466 46.9694Z" fill="white"/>
<path id="Vector_27" d="M128.906 48.2098C129.165 47.7257 129.522 47.3503 129.975 47.0835C130.429 46.8166 130.934 46.6836 131.49 46.6836C132.038 46.6836 132.515 46.8017 132.919 47.0378C133.323 47.2739 133.624 47.5715 133.822 47.9296V46.7867H134.874V53.0506H133.822V51.8849C133.617 52.2501 133.31 52.5531 132.902 52.7932C132.494 53.0333 132.019 53.1537 131.479 53.1537C130.922 53.1537 130.419 53.0159 129.97 52.742C129.52 52.4673 129.165 52.0832 128.906 51.5873C128.647 51.0922 128.518 50.5279 128.518 49.8958C128.518 49.2551 128.647 48.6939 128.906 48.2098ZM133.536 48.6726C133.346 48.3224 133.088 48.0532 132.765 47.8666C132.441 47.6801 132.085 47.5864 131.696 47.5864C131.307 47.5864 130.953 47.6777 130.633 47.8611C130.313 48.0437 130.057 48.3106 129.867 48.6608C129.676 49.0119 129.581 49.4235 129.581 49.8958C129.581 50.3759 129.676 50.7931 129.867 51.1473C130.057 51.5015 130.313 51.7723 130.633 51.9588C130.953 52.1454 131.307 52.239 131.696 52.239C132.085 52.239 132.441 52.1454 132.765 51.9588C133.088 51.7723 133.346 51.5015 133.536 51.1473C133.727 50.7931 133.822 50.3799 133.822 49.9068C133.822 49.4346 133.727 49.0229 133.536 48.6726Z" fill="white"/>
<path id="Vector_28" d="M141.537 47.3638C142.01 47.825 142.246 48.4893 142.246 49.3583V53.0507H141.217V49.5071C141.217 48.8821 141.06 48.4035 140.748 48.0722C140.435 47.7408 140.009 47.5755 139.468 47.5755C138.919 47.5755 138.483 47.7463 138.159 48.0895C137.835 48.4327 137.673 48.9317 137.673 49.5874V53.0507H136.633V46.7868H137.673V47.6778C137.879 47.3583 138.159 47.1103 138.513 46.9348C138.867 46.76 139.258 46.6719 139.685 46.6719C140.447 46.6719 141.064 46.9025 141.537 47.3638Z" fill="white"/>
<path id="Vector_29" d="M143.949 48.2098C144.208 47.7257 144.569 47.3503 145.03 47.0835C145.491 46.8166 146.019 46.6836 146.613 46.6836C147.383 46.6836 148.017 46.8701 148.516 47.2432C149.015 47.6171 149.345 48.135 149.505 48.7986H148.385C148.278 48.4176 148.071 48.1161 147.762 47.895C147.453 47.6746 147.07 47.5636 146.613 47.5636C146.019 47.5636 145.539 47.7674 145.173 48.1752C144.807 48.5829 144.624 49.1598 144.624 49.9068C144.624 50.6616 144.807 51.2441 145.173 51.6558C145.539 52.0674 146.019 52.2729 146.613 52.2729C147.07 52.2729 147.451 52.1666 147.756 51.9533C148.06 51.74 148.271 51.4354 148.385 51.0387H149.505C149.337 51.6786 149.002 52.1918 148.499 52.5759C147.996 52.9608 147.368 53.1537 146.613 53.1537C146.019 53.1537 145.491 53.0198 145.03 52.753C144.569 52.487 144.208 52.1092 143.949 51.6219C143.69 51.1339 143.561 50.5625 143.561 49.9068C143.561 49.259 143.69 48.6939 143.949 48.2098Z" fill="white"/>
<path id="Vector_30" d="M156.568 50.3075H151.561C151.599 50.9246 151.811 51.4063 152.196 51.7534C152.581 52.0997 153.048 52.2729 153.596 52.2729C154.046 52.2729 154.421 52.1682 154.723 51.9589C155.023 51.7495 155.235 51.4693 155.357 51.119H156.477C156.309 51.7212 155.974 52.2107 155.471 52.5878C154.968 52.9648 154.343 53.1537 153.596 53.1537C153.002 53.1537 152.471 53.0199 152.001 52.753C151.533 52.487 151.166 52.1076 150.899 51.6157C150.632 51.1245 150.498 50.5546 150.498 49.9068C150.498 49.259 150.628 48.6915 150.887 48.2035C151.146 47.7163 151.51 47.3408 151.979 47.0779C152.448 46.815 152.986 46.6836 153.596 46.6836C154.19 46.6836 154.716 46.8135 155.174 47.0724C155.631 47.3314 155.983 47.688 156.231 48.1405C156.479 48.5947 156.603 49.1071 156.603 49.6786C156.603 49.8769 156.591 50.0863 156.568 50.3075ZM155.265 48.4381C155.09 48.1524 154.852 47.9351 154.551 47.7864C154.249 47.6376 153.917 47.5636 153.551 47.5636C153.025 47.5636 152.577 47.7313 152.208 48.0666C151.838 48.4019 151.626 48.8671 151.573 49.4613H155.528C155.528 49.0654 155.44 48.7238 155.265 48.4381Z" fill="white"/>
</g>
</svg>
