<svg width="362" height="355" viewBox="0 0 362 355" fill="none" xmlns="http://www.w3.org/2000/svg">
<g opacity="0.1">
<path d="M8.73007 149.058C13.4748 149.058 17.3211 145.212 17.3211 140.467C17.3211 135.722 13.4748 131.876 8.73007 131.876C3.98537 131.876 0.139038 135.722 0.139038 140.467C0.139038 145.212 3.98537 149.058 8.73007 149.058Z" fill="#CDCFD0"/>
<path d="M34.7979 246.457C39.5426 246.457 43.389 242.611 43.389 237.866C43.389 233.121 39.5426 229.275 34.7979 229.275C30.0532 229.275 26.2069 233.121 26.2069 237.866C26.2069 242.611 30.0532 246.457 34.7979 246.457Z" fill="#CDCFD0"/>
<path d="M60.9444 78.9049C65.6891 78.9049 69.5355 75.0585 69.5355 70.3138C69.5355 65.569 65.6891 61.7227 60.9444 61.7227C56.1997 61.7227 52.3534 65.569 52.3534 70.3138C52.3534 75.0585 56.1997 78.9049 60.9444 78.9049Z" fill="#CDCFD0"/>
<path d="M87.4636 167.504C92.2083 167.504 96.0546 163.658 96.0546 158.913C96.0546 154.169 92.2083 150.322 87.4636 150.322C82.7189 150.322 78.8726 154.169 78.8726 158.913C78.8726 163.658 82.7189 167.504 87.4636 167.504Z" fill="#CDCFD0"/>
<path d="M113.735 36.8502C118.479 36.8502 122.326 33.0038 122.326 28.2591C122.326 23.5143 118.479 19.668 113.735 19.668C108.99 19.668 105.144 23.5143 105.144 28.2591C105.144 33.0038 108.99 36.8502 113.735 36.8502Z" fill="#CDCFD0"/>
<path d="M140.014 168.122C144.759 168.122 148.605 164.275 148.605 159.531C148.605 154.786 144.759 150.939 140.014 150.939C135.27 150.939 131.423 154.786 131.423 159.531C131.423 164.275 135.27 168.122 140.014 168.122Z" fill="#CDCFD0"/>
<path d="M166.285 309.147C171.03 309.147 174.877 305.301 174.877 300.556C174.877 295.811 171.03 291.965 166.285 291.965C161.541 291.965 157.694 295.811 157.694 300.556C157.694 305.301 161.541 309.147 166.285 309.147Z" fill="#CDCFD0"/>
<path d="M192.557 201.37C197.301 201.37 201.148 197.524 201.148 192.779C201.148 188.034 197.301 184.188 192.557 184.188C187.812 184.188 183.966 188.034 183.966 192.779C183.966 197.524 187.812 201.37 192.557 201.37Z" fill="#CDCFD0"/>
<path d="M218.826 95.9151C223.57 95.9151 227.417 92.0688 227.417 87.324C227.417 82.5793 223.57 78.7329 218.826 78.7329C214.081 78.7329 210.235 82.5793 210.235 87.324C210.235 92.0688 214.081 95.9151 218.826 95.9151Z" fill="#CDCFD0"/>
<path d="M271.404 300.556C276.149 300.556 279.995 296.71 279.995 291.965C279.995 287.22 276.149 283.374 271.404 283.374C266.66 283.374 262.813 287.22 262.813 291.965C262.813 296.71 266.66 300.556 271.404 300.556Z" fill="#CDCFD0"/>
<path d="M297.672 228.766C302.416 228.766 306.263 224.92 306.263 220.175C306.263 215.43 302.416 211.584 297.672 211.584C292.927 211.584 289.081 215.43 289.081 220.175C289.081 224.92 292.927 228.766 297.672 228.766Z" fill="#CDCFD0"/>
<path d="M323.939 54.9063C328.684 54.9063 332.53 51.06 332.53 46.3152C332.53 41.5705 328.684 37.7241 323.939 37.7241C319.194 37.7241 315.348 41.5705 315.348 46.3152C315.348 51.06 319.194 54.9063 323.939 54.9063Z" fill="#CDCFD0"/>
<path d="M350.207 121.228C354.951 121.228 358.798 117.381 358.798 112.637C358.798 107.892 354.951 104.045 350.207 104.045C345.462 104.045 341.615 107.892 341.615 112.637C341.615 117.381 345.462 121.228 350.207 121.228Z" fill="#CDCFD0"/>
<path d="M9.52156 37.7236H7.77869V382.071H9.52156V37.7236Z" fill="#CDCFD0"/>
<path d="M35.7927 -14.9902H34.0498V355.389H35.7927V-14.9902Z" fill="#CDCFD0"/>
<path d="M62.0638 -14.9902H60.3209V355.389H62.0638V-14.9902Z" fill="#CDCFD0"/>
<path d="M88.335 -22.7812H86.5922V205.331H88.335V-22.7812Z" fill="#CDCFD0"/>
<path d="M114.606 -7.70215H112.863V263.624H114.606V-7.70215Z" fill="#CDCFD0"/>
<path d="M140.886 -14.9902H139.143V383.369H140.886V-14.9902Z" fill="#CDCFD0"/>
<path d="M167.157 -22.7812H165.414V332.758H167.157V-22.7812Z" fill="#CDCFD0"/>
<path d="M193.428 -35.4004H191.685V342.634H193.428V-35.4004Z" fill="#CDCFD0"/>
<path d="M219.699 61.7227H217.956V405.592H219.699V61.7227Z" fill="#CDCFD0"/>
<path d="M245.97 106.542H244.228V333.809H245.97V106.542Z" fill="#CDCFD0"/>
<path d="M272.242 87.3276H270.499V366.086H272.242V87.3276Z" fill="#CDCFD0"/>
<path d="M298.513 37.7236H296.77V412.999H298.513V37.7236Z" fill="#CDCFD0"/>
<path d="M324.784 -14.9297H323.041V332.758H324.784V-14.9297Z" fill="#CDCFD0"/>
<path d="M351.055 19.6709H349.312V321.642H351.055V19.6709Z" fill="#CDCFD0"/>
<path d="M245.126 181.091C249.871 181.091 253.717 177.245 253.717 172.5C253.717 167.755 249.871 163.909 245.126 163.909C240.381 163.909 236.535 167.755 236.535 172.5C236.535 177.245 240.381 181.091 245.126 181.091Z" fill="#E2E439"/>
</g>
</svg>
