<svg width="422" height="427" viewBox="0 0 422 427" fill="none" xmlns="http://www.w3.org/2000/svg">
<path d="M-0.000244141 212.552L30.0919 206.497C40.124 204.51 50.1335 202.398 60.1886 200.512L90.336 194.754C100.377 192.794 110.451 190.991 120.515 189.165C130.593 187.369 140.639 185.458 150.731 183.761L181.003 178.593L211.329 173.729C221.453 172.148 231.596 170.671 241.752 169.261L242.538 172.492C242.565 172.613 242.487 172.728 242.372 172.759L212.569 180.255L182.693 187.349L152.762 194.158L122.78 200.705C102.805 205.131 82.7335 209.09 62.7197 213.306L2.51928 225.183L-0.000244141 212.552Z" fill="#808285"/>
<path d="M36.927 308.428L62.3981 291.31C70.905 285.63 79.3434 279.843 87.9059 274.251L113.544 257.388C122.07 251.732 130.681 246.203 139.282 240.67C147.904 235.151 156.455 229.537 165.123 224.098L191.108 207.734L217.255 191.624L243.64 175.848L245.688 178.465C245.762 178.563 245.744 178.701 245.652 178.78L245.643 178.782C237.48 184.987 229.23 191.061 220.98 197.126L196.088 215.131L171.032 232.89L145.844 250.432C129.073 262.178 112.049 273.522 95.1705 285.089L44.0836 319.126L36.927 308.428Z" fill="#808285"/>
<path d="M214.145 -92L226.24 -31.5683C230.02 -11.3796 234.072 8.76065 237.632 29.0035L243.08 59.3428L248.275 89.7316L253.181 120.18C254.742 130.348 256.295 140.512 257.692 150.716L257.701 150.741C257.714 150.85 257.641 150.944 257.531 150.959H257.526L254.191 151.292C251.6 141.337 249.069 131.366 246.658 121.374L239.51 91.3816L232.675 61.3362C230.388 51.3202 228.293 41.2669 226.088 31.2382C223.897 21.2024 221.724 11.1701 219.68 1.10563L213.447 -29.0568C211.352 -39.1145 209.446 -49.2041 207.448 -59.2698L201.503 -89.4909L214.145 -92Z" fill="#808285"/>
<path d="M201.508 424.492L207.448 394.279C209.46 384.217 211.339 374.129 213.456 364.084L219.69 333.935C221.724 323.873 223.92 313.843 226.097 303.817C228.302 293.784 230.383 283.739 232.684 273.733L239.515 243.69L246.649 213.71C249.065 203.729 251.587 193.762 254.173 183.808L257.485 184.139C257.605 184.151 257.692 184.257 257.678 184.375V184.39C256.286 194.588 254.729 204.751 253.176 214.911L248.275 245.345L243.089 275.724L237.641 306.049C234.072 326.279 230.034 346.413 226.254 366.602L214.136 427L201.508 424.492Z" fill="#808285"/>
<path d="M118.411 -54.9946L135.534 -29.4384C141.216 -20.9044 147.004 -12.4398 152.603 -3.84521L169.473 21.8764C175.132 30.4332 180.663 39.069 186.203 47.7014C191.724 56.3475 197.337 64.9273 202.776 73.6298L219.152 99.6912L235.266 125.931C240.608 134.694 245.859 143.526 251.049 152.39L248.284 154.25C248.187 154.317 248.054 154.286 247.985 154.195C241.779 146.015 235.712 137.742 229.648 129.469L211.655 104.513L193.901 79.4017L176.363 54.1487C164.627 37.3397 153.285 20.2735 141.723 3.3565L107.701 -47.8491L118.411 -54.9946Z" fill="#808285"/>
<path d="M2.50766 109.813L32.6136 115.748C42.6434 117.759 52.6942 119.638 62.7012 121.754L92.752 127.985C102.775 130.026 112.768 132.214 122.766 134.393C132.759 136.596 142.771 138.677 152.748 140.978L182.679 147.803L212.56 154.935C222.51 157.352 232.436 159.875 242.358 162.462L241.963 165.758C241.945 165.876 241.844 165.96 241.725 165.95L241.711 165.946C231.555 164.553 221.426 163.003 211.302 161.451L180.98 156.548L150.704 151.368L120.497 145.929C100.338 142.36 80.2807 138.326 60.1655 134.55L-0.00952148 122.44L2.50766 109.813Z" fill="#808285"/>
<path d="M44.0834 15.8564L69.6373 32.8778C78.1307 38.5774 86.7069 44.17 95.1405 49.9602L120.529 67.2345C129.009 72.9613 137.41 78.8135 145.814 84.6623C154.204 90.5237 162.661 96.2909 171.003 102.237L196.051 120.019L220.93 138.057C229.202 144.102 237.411 150.242 245.583 156.436L243.865 159.286C243.805 159.389 243.667 159.419 243.557 159.355C234.71 154.179 225.95 148.869 217.19 143.554L191.053 127.409L165.077 111.022L139.243 94.4202C121.994 83.4004 105.012 71.9934 87.8782 60.7954L36.927 26.555L44.0834 15.8564Z" fill="#E2E439"/>
<path d="M107.701 382.847L124.709 357.253C130.4 348.74 135.991 340.152 141.769 331.697L159.027 306.269C164.746 297.771 170.589 289.36 176.427 280.936C182.284 272.53 188.04 264.061 193.979 255.708L211.743 230.612L229.763 205.685C235.803 197.402 241.931 189.171 248.123 180.979L251.081 182.485C251.187 182.538 251.238 182.671 251.178 182.778L251.164 182.796C245.992 191.671 240.682 200.459 235.376 209.235L219.23 235.44L202.854 261.489L186.258 287.387C175.247 304.685 163.832 321.721 152.64 338.898L118.412 389.988L107.701 382.847Z" fill="#808285"/>
<path d="M518.218 122.44L488.121 128.495C478.084 130.487 468.075 132.598 458.01 134.485L427.854 140.25C417.812 142.212 407.734 144.015 397.661 145.837C387.583 147.633 377.527 149.545 367.431 151.252L337.15 156.422L306.81 161.284C296.69 162.87 286.543 164.349 276.387 165.758L275.583 162.531C275.56 162.419 275.634 162.303 275.753 162.272C285.671 159.665 295.616 157.212 305.561 154.769L335.455 147.67L365.396 140.854L395.396 134.303C415.378 129.871 435.447 125.913 455.475 121.691L515.7 109.813L518.218 122.44Z" fill="#808285"/>
<path d="M410.518 -47.8492L393.508 -22.2448C387.812 -13.718 382.226 -5.1302 376.439 3.32772L359.176 28.7725C353.457 37.2774 347.605 45.6907 341.767 54.114C335.905 62.5261 330.14 71.0012 324.201 79.3603L306.433 104.469L288.404 129.411C282.359 137.699 276.231 145.935 270.039 154.126L267.067 152.615C266.961 152.562 266.92 152.434 266.97 152.326L266.984 152.311L282.786 125.853L298.937 99.6363L315.326 73.5769L331.927 47.6657C342.947 30.3585 354.362 13.3173 365.566 -3.87058L399.81 -54.9946L410.518 -47.8492Z" fill="#808285"/>
<path d="M304.082 426.988L298.027 396.787C296.034 386.716 293.921 376.668 292.033 366.573L286.272 336.315C284.307 326.237 282.497 316.128 280.682 306.023C278.881 295.91 276.975 285.818 275.266 275.685L270.094 245.31L265.234 214.861C263.645 204.709 262.17 194.528 260.755 184.338L263.994 183.585C264.104 183.556 264.223 183.636 264.251 183.748C266.86 193.699 269.313 203.674 271.752 213.655L278.849 243.652L285.666 273.688L292.216 303.777C296.649 323.831 300.613 343.971 304.83 364.063L316.714 424.481L304.082 426.988Z" fill="#808285"/>
<path d="M316.714 -89.4908L310.769 -59.2697C308.762 -49.1984 306.879 -39.1076 304.766 -29.0567L298.528 1.11257C296.488 11.1723 294.297 21.207 292.115 31.2416C289.915 41.2774 287.825 51.3271 285.523 61.3434L278.693 91.3991L271.559 121.39C269.143 131.383 266.617 141.354 264.031 151.314L260.719 150.979C260.604 150.965 260.516 150.858 260.526 150.741L260.535 150.724C261.922 140.524 263.47 130.354 265.032 120.189L269.942 89.7372L275.128 59.3428L280.576 29.0035C284.146 8.76769 288.188 -11.3796 291.964 -31.5683L304.082 -92L316.714 -89.4908Z" fill="#808285"/>
<path d="M481.299 26.5595L455.815 43.6832C447.298 49.3666 438.86 55.1591 430.288 60.7517L404.638 77.6297C396.113 83.2877 387.5 88.8208 378.887 94.3605C370.265 99.8796 361.712 105.499 353.03 110.943L327.04 127.316L300.875 143.438C292.129 148.779 283.328 154.031 274.486 159.226L273.526 157.855L272.432 156.614C272.354 156.525 272.363 156.391 272.451 156.317L272.455 156.305L272.478 156.297C280.645 150.086 288.895 144.012 297.15 137.935L322.06 119.921L347.123 102.152L372.327 84.6025C389.107 72.8489 406.14 61.4901 423.031 49.9187L474.138 15.8599L481.299 26.5595Z" fill="#808285"/>
<path d="M399.811 389.995L382.695 364.439C377.013 355.907 371.225 347.445 365.63 338.849L348.767 313.132C343.104 304.58 337.573 295.945 332.038 287.315C326.525 278.666 320.908 270.087 315.469 261.392L299.102 235.333L282.988 209.096C277.65 200.332 272.405 191.508 267.209 182.64L269.961 180.776C270.053 180.711 270.186 180.74 270.255 180.83C276.461 189.01 282.529 197.282 288.597 205.555L306.59 230.507L324.344 255.611L341.868 280.866C353.604 297.67 364.95 314.732 376.508 331.653L410.527 382.847L399.811 389.995Z" fill="#808285"/>
<path d="M474.138 319.126L448.585 302.105C440.091 296.405 431.515 290.812 423.081 285.025L397.698 267.752C389.218 262.026 380.816 256.175 372.41 250.331C364.018 244.468 355.566 238.703 347.228 232.754L322.18 214.979L297.302 196.94C289.033 190.896 280.815 184.763 272.644 178.568L274.339 175.707C274.398 175.599 274.536 175.568 274.642 175.632C283.494 180.809 292.253 186.122 301.013 191.431L327.155 207.583L353.136 223.964L378.965 240.56C396.218 251.582 413.205 262.994 430.339 274.186L481.295 308.428L474.138 319.126Z" fill="#808285"/>
<path d="M515.705 225.183L485.594 219.247C475.562 217.235 465.511 215.354 455.498 213.236L425.447 207.006C415.424 204.966 405.428 202.78 395.428 200.597C385.428 198.398 375.414 196.314 365.442 194.016L335.506 187.191L305.625 180.057C295.666 177.648 285.735 175.126 275.818 172.535L276.185 169.228C276.199 169.112 276.3 169.026 276.424 169.037H276.433C286.599 170.429 296.723 171.983 306.856 173.537L337.182 178.434L367.458 183.623L397.684 189.059C417.845 192.632 437.914 196.662 458.024 200.446L518.218 212.552L515.705 225.183Z" fill="#808285"/>
</svg>
