<svg width="468" height="519" viewBox="0 0 468 519" fill="none" xmlns="http://www.w3.org/2000/svg">
<g opacity="0.2">
<path d="M260.408 471.492C191.189 471.492 126.11 465.056 77.1532 453.372C27.9842 441.639 0.9104 425.951 0.9104 409.181C0.9104 392.421 27.9842 376.723 77.1532 364.99C126.11 353.316 191.189 346.88 260.408 346.88C329.627 346.88 394.716 353.316 443.672 364.99C492.832 376.723 519.906 392.421 519.906 409.181C519.906 425.951 492.832 441.639 443.672 453.372C394.716 465.056 329.636 471.492 260.408 471.492ZM260.408 347.864C117.86 347.864 1.89456 375.372 1.89456 409.181C1.89456 442.99 117.86 470.508 260.408 470.508C402.956 470.508 518.921 443 518.921 409.181C518.921 375.363 402.956 347.864 260.408 347.864Z" fill="#CDCFD0"/>
<path d="M260.408 395.152C191.189 395.152 126.11 388.717 77.1532 377.032C27.9842 365.299 0.9104 349.611 0.9104 332.841C0.9104 316.082 27.9842 300.383 77.1532 288.651C126.11 276.976 191.189 270.54 260.408 270.54C329.627 270.54 394.716 276.976 443.672 288.651C492.832 300.383 519.906 316.082 519.906 332.841C519.906 349.611 492.832 365.299 443.672 377.032C394.716 388.717 329.636 395.152 260.408 395.152ZM260.408 271.524C117.86 271.524 1.89456 299.033 1.89456 332.841C1.89456 366.65 117.86 394.168 260.408 394.168C402.956 394.168 518.921 366.66 518.921 332.841C518.921 299.023 402.956 271.524 260.408 271.524Z" fill="#CDCFD0"/>
<path d="M260.412 318.321C403.457 318.321 519.418 290.646 519.418 256.507C519.418 222.369 403.457 194.694 260.412 194.694C117.367 194.694 1.40601 222.369 1.40601 256.507C1.40601 290.646 117.367 318.321 260.412 318.321Z" fill="#E2E439"/>
<path d="M260.408 166.132C191.189 166.132 126.11 159.696 77.1532 148.022C27.9842 136.289 0.9104 120.591 0.9104 103.831C0.9104 87.0712 27.9842 71.3728 77.1532 59.6401C126.11 47.9557 191.189 41.52 260.408 41.52C329.627 41.52 394.716 47.9557 443.672 59.6401C492.832 71.3728 519.906 87.0712 519.906 103.831C519.906 120.591 492.832 136.289 443.672 148.022C394.716 159.696 329.627 166.132 260.408 166.132ZM260.408 42.5042C117.86 42.5042 1.89456 70.0124 1.89456 103.831C1.89456 137.649 117.86 165.148 260.408 165.148C402.956 165.148 518.921 137.64 518.921 103.831C518.921 70.0221 402.956 42.5042 260.408 42.5042Z" fill="#CDCFD0"/>
<path d="M260.408 242.472C191.189 242.472 126.11 236.036 77.1532 224.361C27.9842 212.629 0.9104 196.93 0.9104 180.171C0.9104 163.411 27.9842 147.713 77.1532 135.98C126.11 124.295 191.189 117.86 260.408 117.86C329.627 117.86 394.716 124.296 443.672 135.98C492.832 147.713 519.906 163.411 519.906 180.171C519.906 196.93 492.832 212.629 443.672 224.361C394.716 236.036 329.627 242.472 260.408 242.472ZM260.408 118.844C117.86 118.844 1.89456 146.352 1.89456 180.171C1.89456 213.989 117.86 241.488 260.408 241.488C402.956 241.488 518.921 213.979 518.921 180.171C518.921 146.362 402.956 118.844 260.408 118.844Z" fill="#CDCFD0"/>
</g>
</svg>
