<svg width="390" height="519" viewBox="0 0 390 519" fill="none" xmlns="http://www.w3.org/2000/svg">
<g opacity="0.2">
<path d="M304.83 96.8447C313.539 96.8447 320.599 89.7849 320.599 81.0762C320.599 72.3674 313.539 65.3076 304.83 65.3076C296.122 65.3076 289.062 72.3674 289.062 81.0762C289.062 89.7849 296.122 96.8447 304.83 96.8447Z" fill="#CDCFD0"/>
<path d="M269.146 132.529C277.855 132.529 284.914 125.469 284.914 116.761C284.914 108.052 277.855 100.992 269.146 100.992C260.437 100.992 253.377 108.052 253.377 116.761C253.377 125.469 260.437 132.529 269.146 132.529Z" fill="#CDCFD0"/>
<path d="M233.461 168.214C242.17 168.214 249.23 161.155 249.23 152.446C249.23 143.737 242.17 136.677 233.461 136.677C224.753 136.677 217.693 143.737 217.693 152.446C217.693 161.155 224.753 168.214 233.461 168.214Z" fill="#CDCFD0"/>
<path d="M197.777 203.899C206.486 203.899 213.545 196.839 213.545 188.13C213.545 179.422 206.486 172.362 197.777 172.362C189.068 172.362 182.009 179.422 182.009 188.13C182.009 196.839 189.068 203.899 197.777 203.899Z" fill="#CDCFD0"/>
<path d="M162.093 239.584C170.801 239.584 177.861 232.524 177.861 223.815C177.861 215.107 170.801 208.047 162.093 208.047C153.384 208.047 146.324 215.107 146.324 223.815C146.324 232.524 153.384 239.584 162.093 239.584Z" fill="#CDCFD0"/>
<path d="M61.1009 31.5371C69.8096 31.5371 76.8693 24.4773 76.8693 15.7685C76.8693 7.05982 69.8096 0 61.1009 0C52.3923 0 45.3325 7.05982 45.3325 15.7685C45.3325 24.4773 52.3923 31.5371 61.1009 31.5371Z" fill="#CDCFD0"/>
<path d="M74.1625 80.2832C82.8711 80.2832 89.9309 73.2234 89.9309 64.5146C89.9309 55.8059 82.8711 48.7461 74.1625 48.7461C65.4538 48.7461 58.394 55.8059 58.394 64.5146C58.394 73.2234 65.4538 80.2832 74.1625 80.2832Z" fill="#CDCFD0"/>
<path d="M87.2237 129.03C95.9324 129.03 102.992 121.97 102.992 113.261C102.992 104.552 95.9324 97.4927 87.2237 97.4927C78.5151 97.4927 71.4553 104.552 71.4553 113.261C71.4553 121.97 78.5151 129.03 87.2237 129.03Z" fill="#CDCFD0"/>
<path d="M100.285 177.776C108.994 177.776 116.054 170.716 116.054 162.007C116.054 153.299 108.994 146.239 100.285 146.239C91.5766 146.239 84.5168 153.299 84.5168 162.007C84.5168 170.716 91.5766 177.776 100.285 177.776Z" fill="#CDCFD0"/>
<path d="M113.347 226.522C122.055 226.522 129.115 219.463 129.115 210.754C129.115 202.045 122.055 194.985 113.347 194.985C104.638 194.985 97.5781 202.045 97.5781 210.754C97.5781 219.463 104.638 226.522 113.347 226.522Z" fill="#CDCFD0"/>
<path d="M28.9164 249.146C37.625 249.146 44.6848 242.086 44.6848 233.377C44.6848 224.668 37.625 217.608 28.9164 217.608C20.2077 217.608 13.1479 224.668 13.1479 233.377C13.1479 242.086 20.2077 249.146 28.9164 249.146Z" fill="#CDCFD0"/>
<path d="M77.6622 262.207C86.3708 262.207 93.4306 255.147 93.4306 246.438C93.4306 237.73 86.3708 230.67 77.6622 230.67C68.9536 230.67 61.8938 237.73 61.8938 246.438C61.8938 255.147 68.9536 262.207 77.6622 262.207Z" fill="#CDCFD0"/>
<path d="M19.3546 382.323C28.0632 382.323 35.123 375.263 35.123 366.554C35.123 357.845 28.0632 350.786 19.3546 350.786C10.6459 350.786 3.58618 357.845 3.58618 366.554C3.58618 375.263 10.6459 382.323 19.3546 382.323Z" fill="#CDCFD0"/>
<path d="M55.0392 346.638C63.7478 346.638 70.8076 339.578 70.8076 330.87C70.8076 322.161 63.7478 315.101 55.0392 315.101C46.3305 315.101 39.2708 322.161 39.2708 330.87C39.2708 339.578 46.3305 346.638 55.0392 346.638Z" fill="#CDCFD0"/>
<path d="M90.7235 310.953C99.4321 310.953 106.492 303.893 106.492 295.185C106.492 286.476 99.4321 279.416 90.7235 279.416C82.0148 279.416 74.9551 286.476 74.9551 295.185C74.9551 303.893 82.0148 310.953 90.7235 310.953Z" fill="#CDCFD0"/>
<path d="M191.715 519C200.424 519 207.484 511.94 207.484 503.231C207.484 494.523 200.424 487.463 191.715 487.463C183.007 487.463 175.947 494.523 175.947 503.231C175.947 511.94 183.007 519 191.715 519Z" fill="#CDCFD0"/>
<path d="M178.654 470.254C187.362 470.254 194.422 463.194 194.422 454.485C194.422 445.777 187.362 438.717 178.654 438.717C169.945 438.717 162.885 445.777 162.885 454.485C162.885 463.194 169.945 470.254 178.654 470.254Z" fill="#CDCFD0"/>
<path d="M165.592 421.507C174.301 421.507 181.361 414.447 181.361 405.739C181.361 397.03 174.301 389.97 165.592 389.97C156.883 389.97 149.824 397.03 149.824 405.739C149.824 414.447 156.883 421.507 165.592 421.507Z" fill="#CDCFD0"/>
<path d="M152.531 372.761C161.24 372.761 168.299 365.701 168.299 356.993C168.299 348.284 161.24 341.224 152.531 341.224C143.822 341.224 136.762 348.284 136.762 356.993C136.762 365.701 143.822 372.761 152.531 372.761Z" fill="#CDCFD0"/>
<path d="M139.47 324.015C148.178 324.015 155.238 316.955 155.238 308.246C155.238 299.537 148.178 292.478 139.47 292.478C130.761 292.478 123.701 299.537 123.701 308.246C123.701 316.955 130.761 324.015 139.47 324.015Z" fill="#CDCFD0"/>
<path d="M370.137 340.576C378.846 340.576 385.906 333.516 385.906 324.808C385.906 316.099 378.846 309.039 370.137 309.039C361.429 309.039 354.369 316.099 354.369 324.808C354.369 333.516 361.429 340.576 370.137 340.576Z" fill="#CDCFD0"/>
<path d="M321.391 327.515C330.1 327.515 337.16 320.455 337.16 311.746C337.16 303.037 330.1 295.978 321.391 295.978C312.683 295.978 305.623 303.037 305.623 311.746C305.623 320.455 312.683 327.515 321.391 327.515Z" fill="#CDCFD0"/>
<path d="M272.646 314.453C281.354 314.453 288.414 307.393 288.414 298.685C288.414 289.976 281.354 282.916 272.646 282.916C263.937 282.916 256.877 289.976 256.877 298.685C256.877 307.393 263.937 314.453 272.646 314.453Z" fill="#CDCFD0"/>
<path d="M223.9 301.392C232.608 301.392 239.668 294.332 239.668 285.623C239.668 276.914 232.608 269.854 223.9 269.854C215.191 269.854 208.131 276.914 208.131 285.623C208.131 294.332 215.191 301.392 223.9 301.392Z" fill="#CDCFD0"/>
<path d="M175.154 288.33C183.863 288.33 190.922 281.27 190.922 272.562C190.922 263.853 183.863 256.793 175.154 256.793C166.445 256.793 159.385 263.853 159.385 272.562C159.385 281.27 166.445 288.33 175.154 288.33Z" fill="#CDCFD0"/>
<path d="M126.408 275.537C135.117 275.537 142.176 268.477 142.176 259.768C142.176 251.059 135.117 244 126.408 244C117.699 244 110.64 251.059 110.64 259.768C110.64 268.477 117.699 275.537 126.408 275.537Z" fill="#E2E439"/>
</g>
</svg>
