<svg width="435" height="348" viewBox="0 0 435 348" fill="none" xmlns="http://www.w3.org/2000/svg">
<path d="M387.974 193.309C341.745 193.309 304.133 182.7 304.133 169.658C304.133 156.615 341.745 146.006 387.974 146.006C434.202 146.006 471.805 156.615 471.805 169.658C471.805 182.7 434.202 193.309 387.974 193.309ZM387.974 146.889C342.23 146.889 305.016 157.1 305.016 169.658C305.016 182.215 342.23 192.426 387.974 192.426C433.717 192.426 470.922 182.215 470.922 169.658C470.922 157.1 433.709 146.889 387.974 146.889Z" fill="#808285"/>
<path d="M387.974 176.655C341.745 176.655 304.133 166.046 304.133 153.004C304.133 139.961 341.745 129.352 387.974 129.352C434.202 129.352 471.805 139.961 471.805 153.004C471.805 166.046 434.202 176.655 387.974 176.655ZM387.974 130.235C342.23 130.235 305.016 140.446 305.016 153.004C305.016 165.561 342.23 175.772 387.974 175.772C433.717 175.772 470.922 165.561 470.922 153.004C470.922 140.446 433.709 130.235 387.974 130.235Z" fill="#808285"/>
<path d="M212.308 193.309C166.079 193.309 128.476 182.7 128.476 169.658C128.476 156.615 166.079 146.006 212.308 146.006C258.536 146.006 296.148 156.615 296.148 169.658C296.148 182.7 258.536 193.309 212.308 193.309ZM212.308 146.889C166.572 146.889 129.359 157.1 129.359 169.658C129.359 182.215 166.572 192.426 212.308 192.426C258.043 192.426 295.265 182.215 295.265 169.658C295.265 157.1 258.051 146.889 212.308 146.889Z" fill="#808285"/>
<path d="M212.308 175.772C166.079 175.772 128.476 165.163 128.476 152.12C128.476 139.069 166.079 128.46 212.308 128.46C258.536 128.46 296.148 139.069 296.148 152.12C296.148 165.163 258.536 175.772 212.308 175.772ZM212.308 129.343C166.572 129.343 129.359 139.563 129.359 152.12C129.359 164.678 166.572 174.888 212.308 174.888C258.043 174.888 295.265 164.678 295.265 152.12C295.265 139.563 258.051 129.343 212.308 129.343Z" fill="#808285"/>
<path d="M36.6506 193.309C-9.5782 193.309 -47.1899 182.7 -47.1899 169.658C-47.1899 156.615 -9.5782 146.006 36.6506 146.006C82.8793 146.006 120.491 156.615 120.491 169.658C120.491 182.7 82.8793 193.309 36.6506 193.309ZM36.6506 146.889C-9.0932 146.889 -46.3066 157.1 -46.3066 169.658C-46.3066 182.215 -9.0932 192.426 36.6506 192.426C82.3943 192.426 119.608 182.215 119.608 169.658C119.608 157.1 82.3943 146.889 36.6506 146.889Z" fill="#808285"/>
<path d="M36.6506 176.655C-9.5782 176.655 -47.1899 166.046 -47.1899 153.004C-47.1899 139.961 -9.5782 129.352 36.6506 129.352C82.8793 129.352 120.491 139.961 120.491 153.004C120.491 166.046 82.8793 176.655 36.6506 176.655ZM36.6506 130.235C-9.0932 130.235 -46.3066 140.446 -46.3066 153.004C-46.3066 165.561 -9.0932 175.772 36.6506 175.772C82.3943 175.772 119.608 165.561 119.608 153.004C119.608 140.446 82.3943 130.235 36.6506 130.235Z" fill="#808285"/>
<path d="M387.974 118.96C341.745 118.96 304.133 108.351 304.133 95.3082C304.133 82.2569 341.745 71.6479 387.974 71.6479C434.202 71.6479 471.805 82.2569 471.805 95.3082C471.805 108.351 434.202 118.96 387.974 118.96ZM387.974 72.5313C342.23 72.5313 305.016 82.7505 305.016 95.3082C305.016 107.866 342.23 118.076 387.974 118.076C433.717 118.076 470.922 107.866 470.922 95.3082C470.922 82.7506 433.709 72.5313 387.974 72.5313Z" fill="#808285"/>
<path d="M387.974 102.306C341.745 102.306 304.133 91.6967 304.133 78.6542C304.133 65.6117 341.745 55.0027 387.974 55.0027C434.202 55.0027 471.805 65.6117 471.805 78.6542C471.805 91.6967 434.202 102.306 387.974 102.306ZM387.974 55.886C342.23 55.886 305.016 66.0966 305.016 78.6541C305.016 91.2116 342.23 101.422 387.974 101.422C433.717 101.422 470.922 91.2116 470.922 78.6541C470.922 66.0966 433.709 55.886 387.974 55.886Z" fill="#808285"/>
<path d="M212.31 100.978C258.368 100.978 295.706 90.5854 295.706 77.7656C295.706 64.9459 258.368 54.5535 212.31 54.5535C166.252 54.5535 128.914 64.9459 128.914 77.7656C128.914 90.5854 166.252 100.978 212.31 100.978Z" fill="#E2E439"/>
<path d="M36.6506 118.96C-9.5782 118.96 -47.1899 108.351 -47.1899 95.3082C-47.1899 82.2569 -9.5782 71.6479 36.6506 71.6479C82.8793 71.6479 120.491 82.2569 120.491 95.3082C120.491 108.351 82.8793 118.96 36.6506 118.96ZM36.6506 72.5313C-9.0932 72.5313 -46.3066 82.7505 -46.3066 95.3082C-46.3066 107.866 -9.0932 118.076 36.6506 118.076C82.3943 118.076 119.608 107.866 119.608 95.3082C119.608 82.7506 82.3943 72.5313 36.6506 72.5313Z" fill="#808285"/>
<path d="M36.6506 102.306C-9.5782 102.306 -47.1899 91.6967 -47.1899 78.6542C-47.1899 65.6117 -9.5782 55.0027 36.6506 55.0027C82.8793 55.0027 120.491 65.6117 120.491 78.6542C120.491 91.6967 82.8793 102.306 36.6506 102.306ZM36.6506 55.886C-9.0932 55.886 -46.3066 66.0966 -46.3066 78.6542C-46.3066 91.2118 -9.0932 101.422 36.6506 101.422C82.3943 101.422 119.608 91.2117 119.608 78.6542C119.608 66.0967 82.3943 55.886 36.6506 55.886Z" fill="#808285"/>
<path d="M387.974 44.3504C341.745 44.3504 304.133 33.7414 304.133 20.6989C304.133 7.65635 341.745 -2.95264 387.974 -2.95264C434.202 -2.95264 471.805 7.65635 471.805 20.6989C471.805 33.7414 434.202 44.3504 387.974 44.3504ZM387.974 -2.06927C342.23 -2.06927 305.016 8.14136 305.016 20.6989C305.016 33.2564 342.23 43.467 387.974 43.467C433.717 43.467 470.922 33.2564 470.922 20.6989C470.922 8.14136 433.709 -2.06927 387.974 -2.06927Z" fill="#808285"/>
<path d="M387.974 27.705C341.745 27.705 304.133 17.096 304.133 4.04483C304.133 -8.9977 341.745 -19.6067 387.974 -19.6067C434.202 -19.6067 471.805 -8.9977 471.805 4.04483C471.805 17.096 434.202 27.705 387.974 27.705ZM387.974 -18.7233C342.23 -18.7233 305.016 -8.51269 305.016 4.04483C305.016 16.6023 342.23 26.8217 387.974 26.8217C433.717 26.8217 470.922 16.6024 470.922 4.04483C470.922 -8.51278 433.709 -18.7233 387.974 -18.7233Z" fill="#808285"/>
<path d="M212.308 44.3504C166.079 44.3504 128.476 33.7414 128.476 20.6989C128.476 7.65635 166.079 -2.95264 212.308 -2.95264C258.536 -2.95264 296.148 7.65635 296.148 20.6989C296.148 33.7414 258.536 44.3504 212.308 44.3504ZM212.308 -2.06927C166.572 -2.06927 129.359 8.14136 129.359 20.6989C129.359 33.2564 166.572 43.467 212.308 43.467C258.043 43.467 295.265 33.2564 295.265 20.6989C295.265 8.14136 258.051 -2.06927 212.308 -2.06927Z" fill="#808285"/>
<path d="M212.308 26.813C166.079 26.813 128.476 16.2041 128.476 3.16153C128.476 -9.881 166.079 -20.49 212.308 -20.49C258.536 -20.49 296.148 -9.881 296.148 3.16153C296.148 16.2041 258.536 26.813 212.308 26.813ZM212.308 -19.6066C166.572 -19.6066 129.359 -9.39599 129.359 3.16153C129.359 15.7191 166.572 25.9297 212.308 25.9297C258.043 25.9297 295.265 15.7191 295.265 3.16153C295.265 -9.39599 258.051 -19.6066 212.308 -19.6066Z" fill="#808285"/>
<path d="M36.6506 44.3504C-9.5782 44.3504 -47.1899 33.7414 -47.1899 20.6989C-47.1899 7.65635 -9.5782 -2.95264 36.6506 -2.95264C82.8793 -2.95264 120.491 7.65635 120.491 20.6989C120.491 33.7414 82.8793 44.3504 36.6506 44.3504ZM36.6506 -2.06927C-9.0932 -2.06927 -46.3066 8.14136 -46.3066 20.6989C-46.3066 33.2564 -9.0932 43.467 36.6506 43.467C82.3943 43.467 119.608 33.2564 119.608 20.6989C119.608 8.14136 82.3943 -2.06927 36.6506 -2.06927Z" fill="#808285"/>
<path d="M36.6506 27.705C-9.5782 27.705 -47.1899 17.096 -47.1899 4.04483C-47.1899 -8.9977 -9.5782 -19.6067 36.6506 -19.6067C82.8793 -19.6067 120.491 -8.9977 120.491 4.04483C120.491 17.096 82.8793 27.705 36.6506 27.705ZM36.6506 -18.7233C-9.0932 -18.7233 -46.3066 -8.51269 -46.3066 4.04483C-46.3066 16.6023 -9.0932 26.8217 36.6506 26.8217C82.3943 26.8217 119.608 16.6024 119.608 4.04483C119.608 -8.51278 82.3943 -18.7233 36.6506 -18.7233Z" fill="#808285"/>
<path d="M289.501 86.5354C277.067 78.0655 247.212 72.092 212.31 72.092C177.408 72.092 147.552 78.0655 135.118 86.5354C147.552 95.0053 177.407 100.978 212.31 100.978C247.213 100.978 277.067 95.0042 289.501 86.5354Z" fill="#E2E439"/>
<path d="M290.92 87.6147C277.309 97.2364 244.425 102.752 212.31 102.752C180.195 102.752 147.31 97.2364 133.699 87.6158C130.655 90.0255 128.914 92.6052 128.914 95.304C128.914 108.124 166.252 118.516 212.31 118.516C258.368 118.516 295.706 108.124 295.706 95.304C295.706 92.6052 293.964 90.0245 290.92 87.6147Z" fill="#E2E439"/>
</svg>
