<svg width="427" height="427" viewBox="0 0 427 427" fill="none" xmlns="http://www.w3.org/2000/svg">
<path d="M10.0099 124.135C15.0354 124.135 19.1094 120.061 19.1094 115.036C19.1094 110.01 15.0354 105.936 10.0099 105.936C4.98438 105.936 0.9104 110.01 0.9104 115.036C0.9104 120.061 4.98438 124.135 10.0099 124.135Z" fill="#808285"/>
<path d="M37.6205 227.299C42.646 227.299 46.72 223.225 46.72 218.199C46.72 213.174 42.646 209.1 37.6205 209.1C32.595 209.1 28.521 213.174 28.521 218.199C28.521 223.225 32.595 227.299 37.6205 227.299Z" fill="#808285"/>
<path d="M65.3143 49.83C70.3398 49.83 74.4138 45.756 74.4138 40.7304C74.4138 35.7049 70.3398 31.6309 65.3143 31.6309C60.2888 31.6309 56.2148 35.7049 56.2148 40.7304C56.2148 45.756 60.2888 49.83 65.3143 49.83Z" fill="#808285"/>
<path d="M93.4032 143.673C98.4287 143.673 102.503 139.599 102.503 134.574C102.503 129.548 98.4287 125.474 93.4032 125.474C88.3777 125.474 84.3037 129.548 84.3037 134.574C84.3037 139.599 88.3777 143.673 93.4032 143.673Z" fill="#808285"/>
<path d="M121.229 5.28653C126.255 5.28653 130.329 1.21252 130.329 -3.81303C130.329 -8.83858 126.255 -12.9126 121.229 -12.9126C116.204 -12.9126 112.13 -8.83858 112.13 -3.81303C112.13 1.21252 116.204 5.28653 121.229 5.28653Z" fill="#808285"/>
<path d="M149.064 144.327C154.09 144.327 158.164 140.253 158.164 135.227C158.164 130.202 154.09 126.128 149.064 126.128C144.039 126.128 139.965 130.202 139.965 135.227C139.965 140.253 144.039 144.327 149.064 144.327Z" fill="#808285"/>
<path d="M176.89 293.699C181.916 293.699 185.989 289.625 185.989 284.6C185.989 279.574 181.916 275.5 176.89 275.5C171.864 275.5 167.791 279.574 167.791 284.6C167.791 289.625 171.864 293.699 176.89 293.699Z" fill="#808285"/>
<path d="M204.716 179.543C209.741 179.543 213.815 175.469 213.815 170.444C213.815 165.418 209.741 161.344 204.716 161.344C199.69 161.344 195.616 165.418 195.616 170.444C195.616 175.469 199.69 179.543 204.716 179.543Z" fill="#808285"/>
<path d="M232.54 67.8471C237.565 67.8471 241.639 63.7731 241.639 58.7475C241.639 53.722 237.565 49.6479 232.54 49.6479C227.514 49.6479 223.44 53.722 223.44 58.7475C223.44 63.7731 227.514 67.8471 232.54 67.8471Z" fill="#808285"/>
<path d="M288.23 284.599C293.256 284.599 297.33 280.525 297.33 275.5C297.33 270.474 293.256 266.4 288.23 266.4C283.205 266.4 279.131 270.474 279.131 275.5C279.131 280.525 283.205 284.599 288.23 284.599Z" fill="#808285"/>
<path d="M316.052 208.561C321.078 208.561 325.152 204.487 325.152 199.461C325.152 194.436 321.078 190.362 316.052 190.362C311.027 190.362 306.953 194.436 306.953 199.461C306.953 204.487 311.027 208.561 316.052 208.561Z" fill="#808285"/>
<path d="M343.874 24.411C348.9 24.411 352.974 20.337 352.974 15.3115C352.974 10.2859 348.9 6.21191 343.874 6.21191C338.849 6.21191 334.775 10.2859 334.775 15.3115C334.775 20.337 338.849 24.411 343.874 24.411Z" fill="#808285"/>
<path d="M371.696 94.6576C376.722 94.6576 380.796 90.5836 380.796 85.5581C380.796 80.5325 376.722 76.4585 371.696 76.4585C366.671 76.4585 362.597 80.5325 362.597 85.5581C362.597 90.5836 366.671 94.6576 371.696 94.6576Z" fill="#808285"/>
<path d="M399.518 275.5C404.544 275.5 408.618 271.426 408.618 266.4C408.618 261.375 404.544 257.301 399.518 257.301C394.493 257.301 390.419 261.375 390.419 266.4C390.419 271.426 394.493 275.5 399.518 275.5Z" fill="#808285"/>
<path d="M427.34 170.443C432.366 170.443 436.44 166.369 436.44 161.344C436.44 156.318 432.366 152.244 427.34 152.244C422.315 152.244 418.241 156.318 418.241 161.344C418.241 166.369 422.315 170.443 427.34 170.443Z" fill="#808285"/>
<path d="M10.8482 6.21191H9.0022V370.939H10.8482V6.21191Z" fill="#808285"/>
<path d="M38.6742 -49.6216H36.8281V342.678H38.6742V-49.6216Z" fill="#808285"/>
<path d="M66.5001 -49.6216H64.6541V342.678H66.5001V-49.6216Z" fill="#808285"/>
<path d="M94.326 -57.8745H92.48V183.739H94.326V-57.8745Z" fill="#808285"/>
<path d="M122.152 -41.9028H120.306V245.481H122.152V-41.9028Z" fill="#808285"/>
<path d="M149.987 -49.6216H148.141V372.314H149.987V-49.6216Z" fill="#808285"/>
<path d="M177.813 -57.8745H175.967V318.707H177.813V-57.8745Z" fill="#808285"/>
<path d="M205.639 -71.2402H203.793V329.168H205.639V-71.2402Z" fill="#808285"/>
<path d="M233.465 31.6309H231.619V395.851H233.465V31.6309Z" fill="#808285"/>
<path d="M261.291 79.103H259.445V319.82H261.291V79.103Z" fill="#808285"/>
<path d="M289.117 58.751H287.271V354.008H289.117V58.751Z" fill="#808285"/>
<path d="M316.943 6.21191H315.097V403.697H316.943V6.21191Z" fill="#808285"/>
<path d="M344.769 -49.5586H342.923V318.707H344.769V-49.5586Z" fill="#808285"/>
<path d="M372.595 -12.9092H370.749V306.934H372.595V-12.9092Z" fill="#808285"/>
<path d="M400.421 -12.9092H398.575V266.403H400.421V-12.9092Z" fill="#808285"/>
<path d="M428.247 -27.8042H426.401V352.696H428.247V-27.8042Z" fill="#808285"/>
<path d="M260.397 158.064C265.422 158.064 269.496 153.99 269.496 148.964C269.496 143.939 265.422 139.865 260.397 139.865C255.371 139.865 251.297 143.939 251.297 148.964C251.297 153.99 255.371 158.064 260.397 158.064Z" fill="#E2E439"/>
</svg>
