<svg width="422" height="427" viewBox="0 0 422 427" fill="none" xmlns="http://www.w3.org/2000/svg">
<path d="M0.844727 167.5C0.844727 133.134 7.57552 99.7961 20.8504 68.4109C33.6718 38.097 52.0264 10.873 75.4043 -12.5051C98.7827 -35.8837 126.006 -54.2384 156.32 -67.0601C187.705 -80.3349 221.043 -87.0659 255.408 -87.0659V-83.1727C221.567 -83.1727 188.739 -76.5453 157.836 -63.4743C127.987 -50.849 101.179 -32.7743 78.1574 -9.75225C55.1359 13.2698 37.0614 40.0777 24.436 69.9274C11.3655 100.831 4.73805 133.659 4.73805 167.5C4.73805 201.341 11.3655 234.17 24.436 265.072C37.0614 294.922 55.1359 321.73 78.1574 344.752C101.179 367.774 127.987 385.849 157.836 398.474C188.739 411.545 221.567 418.172 255.408 418.172V422.066C221.043 422.066 187.705 415.335 156.32 402.06C126.006 389.238 98.7827 370.883 75.4043 347.505C52.0264 324.127 33.6718 296.903 20.8504 266.589C7.57552 235.203 0.844727 201.865 0.844727 167.5Z" fill="#808285"/>
<path d="M0 167.5C0 133.021 6.75267 99.5718 20.072 68.0816C32.9356 37.6677 51.3513 10.3535 74.8067 -13.103C98.2627 -36.5586 125.578 -54.9745 155.991 -67.8382C187.481 -81.1574 220.93 -87.9111 255.408 -87.9111H256.253V-82.3276H255.408C221.68 -82.3276 188.963 -75.7223 158.166 -62.696C128.417 -50.1137 101.7 -32.0998 78.7545 -9.15509C55.8091 13.7912 37.7961 40.5091 25.2139 70.257C12.1878 101.055 5.58273 133.772 5.58273 167.5C5.58273 201.228 12.1878 233.945 25.2139 264.743C37.7961 294.491 55.8091 321.208 78.7545 344.155C101.7 367.099 128.417 385.113 158.166 397.696C188.963 410.722 221.68 417.327 255.408 417.327H256.253V422.911H255.408C220.93 422.911 187.481 416.157 155.991 402.838C125.578 389.974 98.2628 371.558 74.8067 348.103C51.3513 324.646 32.9356 297.332 20.072 266.918C6.75267 235.428 0 201.979 0 167.5ZM254.563 -86.2193C220.611 -86.1103 187.673 -79.4036 156.649 -66.2816C126.437 -53.5031 99.3033 -35.2093 76.0015 -11.9081C52.7004 11.394 34.4068 38.5276 21.6282 68.7403C8.39832 100.021 1.69009 133.248 1.69009 167.5C1.69009 201.752 8.39822 234.979 21.6282 266.26C34.4068 296.472 52.7005 323.606 76.0015 346.908C99.3033 370.209 126.437 388.503 156.649 401.281C187.672 414.403 220.611 421.11 254.563 421.219V419.016C220.906 418.907 188.257 412.259 157.507 399.252C127.558 386.585 100.659 368.45 77.5596 345.35C54.4598 322.249 36.3246 295.351 23.6576 265.401C10.5421 234.394 3.89255 201.456 3.89255 167.5C3.89255 133.544 10.5421 100.606 23.6576 69.5985C36.3247 39.6493 54.4598 12.7508 77.5596 -10.3498C100.659 -33.4496 127.558 -51.585 157.507 -64.2524C188.257 -77.2588 220.906 -83.9069 254.563 -84.0158V-86.2193Z" fill="#808285"/>
<path d="M25.6897 167.5C25.6897 136.489 31.7636 106.404 43.743 78.0821C55.3131 50.727 71.8763 26.1598 92.9729 5.0634C114.069 -16.0332 138.636 -32.5965 165.991 -44.1669C194.313 -56.1463 224.397 -62.2202 255.408 -62.2202V-58.327C224.921 -58.327 195.347 -52.3565 167.507 -40.5811C140.617 -29.2071 116.465 -12.924 95.7258 7.81638C74.9856 28.5565 58.7024 52.7076 47.3285 79.5985C35.5534 107.438 29.5828 137.013 29.5828 167.5C29.5828 197.988 35.5534 227.562 47.3285 255.401C58.7024 282.293 74.9856 306.444 95.7258 327.184C116.465 347.924 140.617 364.207 167.507 375.581C195.347 387.356 224.921 393.327 255.408 393.327V397.22C224.397 397.22 194.313 391.146 165.991 379.167C138.636 367.597 114.069 351.033 92.9729 329.937C71.8763 308.84 55.3131 284.273 43.743 256.918C31.7636 228.596 25.6897 198.511 25.6897 167.5Z" fill="#808285"/>
<path d="M24.845 167.5C24.845 136.374 30.9416 106.178 42.9652 77.7526C54.5768 50.297 71.2011 25.64 92.3754 4.46532C113.548 -16.7076 138.205 -33.3319 165.661 -44.9455C194.089 -56.969 224.284 -63.0659 255.408 -63.0659H256.253V-57.4824H255.408C225.034 -57.4824 195.571 -51.534 167.837 -39.8033C141.046 -28.4712 116.986 -12.2496 96.3233 8.41325C75.6597 29.0771 59.4375 53.1376 48.1072 79.9278C36.3766 107.662 30.4285 137.125 30.4285 167.5C30.4285 197.874 36.3766 227.337 48.1072 255.072C59.4376 281.862 75.6598 305.923 96.3233 326.586C116.986 347.249 141.046 363.471 167.837 374.803C195.571 386.534 225.034 392.482 255.408 392.482H256.253V398.065H255.408C224.284 398.065 194.089 391.969 165.661 379.945C138.205 368.332 113.548 351.707 92.3754 330.534C71.2011 309.36 54.5768 284.703 42.9652 257.247C30.9416 228.821 24.845 198.626 24.845 167.5ZM254.563 -61.3742C223.965 -61.2652 194.282 -55.2154 166.32 -43.389C139.065 -31.8605 114.589 -15.3584 93.5704 5.66018C72.5505 26.6805 56.0484 51.1568 44.5217 78.411C32.5865 106.627 26.535 136.602 26.535 167.5C26.535 198.398 32.5864 228.372 44.5217 256.589C56.0484 283.843 72.5505 308.319 93.5704 329.339C114.589 350.358 139.065 366.86 166.32 378.389C194.282 390.215 223.965 396.265 254.563 396.374V394.17C224.261 394.062 194.865 388.07 167.178 376.359C140.187 364.942 115.946 348.599 95.1284 327.781C74.3106 306.963 57.9662 282.721 46.5509 255.73C34.7312 227.786 28.7385 198.101 28.7385 167.5C28.7385 136.899 34.7312 107.213 46.5509 79.2695C57.9662 52.2785 74.3106 28.0364 95.1284 7.2184C115.946 -13.5989 140.187 -29.9426 167.178 -41.3596C194.865 -53.0705 224.261 -59.0617 254.563 -59.1707V-61.3742Z" fill="#808285"/>
<path d="M50.5354 167.5C50.5354 139.843 55.9526 113.012 66.636 87.7533C76.9549 63.3566 91.7269 41.4467 110.541 22.6318C129.356 3.81718 151.265 -10.9547 175.662 -21.2737C200.921 -31.9575 227.751 -37.3745 255.408 -37.3745V-33.4813C228.275 -33.4813 201.955 -28.1677 177.179 -17.688C153.246 -7.56547 131.752 6.92632 113.294 25.3847C94.8359 43.8433 80.3445 65.3372 70.2216 89.2696C59.7422 114.047 54.4286 140.367 54.4286 167.5C54.4286 194.633 59.7421 220.954 70.2216 245.73C80.3445 269.663 94.8359 291.157 113.294 309.615C131.752 328.074 153.246 342.565 177.179 352.688C201.955 363.168 228.275 368.481 255.408 368.481V372.375C227.751 372.375 200.921 366.958 175.662 356.274C151.265 345.955 129.356 331.183 110.541 312.368C91.7265 293.554 76.9549 271.644 66.636 247.247C55.9526 221.988 50.5354 195.157 50.5354 167.5Z" fill="#808285"/>
<path d="M49.6899 167.5C49.6899 139.731 55.1297 112.789 65.8577 87.424C76.2184 62.9279 91.051 40.9279 109.944 22.0343C128.835 3.14218 150.835 -11.6905 175.333 -22.0513C200.695 -32.7792 227.636 -38.2192 255.407 -38.2192H256.253V-32.6357H255.407C228.388 -32.6357 202.179 -27.3444 177.508 -16.9092C153.676 -6.8298 132.272 7.60111 113.892 25.9822C95.5112 44.3627 81.0806 65.7667 70.9995 89.5993C60.5647 114.271 55.2732 140.481 55.2732 167.5C55.2732 194.519 60.5646 220.729 70.9995 245.401C81.0806 269.234 95.5112 290.638 113.892 309.018C132.273 327.4 153.676 341.831 177.508 351.91C202.179 362.345 228.388 367.637 255.407 367.637H256.253V373.22H255.407C227.636 373.22 200.695 367.78 175.333 357.052C150.835 346.691 128.835 331.859 109.944 312.967C91.0519 294.075 76.2193 272.074 65.8577 247.577C55.1297 222.212 49.6899 195.269 49.6899 167.5ZM254.563 -36.5276C227.318 -36.4178 200.886 -31.0257 175.991 -20.4949C151.695 -10.2191 129.875 4.49226 111.139 23.2291C92.4011 41.9677 77.6898 63.7877 67.4139 88.0825C56.7744 113.238 51.3798 139.958 51.3798 167.5C51.3798 195.043 56.7744 221.763 67.4139 246.918C77.6906 271.214 92.401 293.034 111.139 311.771C129.875 330.508 151.695 345.22 175.991 355.496C200.886 366.026 227.318 371.418 254.563 371.528V369.325C227.613 369.216 201.473 363.882 176.85 353.466C152.817 343.302 131.232 328.75 112.697 310.214C94.162 291.679 79.6092 270.094 69.4433 246.06C58.9191 221.178 53.5834 194.747 53.5834 167.501C53.5834 140.254 58.9191 113.823 69.4433 88.9409C79.6092 64.9068 94.162 43.3221 112.697 24.7873C131.232 6.25103 152.817 -8.30107 176.85 -18.4656C201.473 -28.8807 227.613 -34.2151 254.563 -34.324V-36.5276Z" fill="#808285"/>
<path d="M75.3806 167.5C75.3806 143.197 80.1405 119.62 89.5289 97.4241C98.5963 75.9861 111.577 56.7333 128.109 40.2004C144.642 23.6675 163.895 10.6869 185.333 1.61956C207.529 -7.76847 231.105 -12.5288 255.408 -12.5288V-8.63555C231.629 -8.63555 208.563 -3.97888 186.849 5.20538C165.876 14.0765 147.039 26.7768 130.862 42.9533C114.686 59.1301 101.986 77.967 93.1145 98.9408C83.9305 120.655 79.2738 143.721 79.2738 167.5C79.2738 191.279 83.9305 214.346 93.1145 236.06C101.986 257.034 114.686 275.87 130.862 292.047C147.039 308.224 165.876 320.924 186.849 329.795C208.563 338.979 231.629 343.636 255.408 343.636V347.529C231.105 347.529 207.529 342.769 185.333 333.381C163.895 324.314 144.642 311.333 128.109 294.8C111.577 278.267 98.5963 259.014 89.5289 237.576C80.1405 215.38 75.3806 191.803 75.3806 167.5Z" fill="#808285"/>
<path d="M74.5359 167.5C74.5359 143.083 79.3181 119.396 88.7505 97.0945C97.8601 75.5566 110.902 56.2132 127.512 39.603C144.121 22.9927 163.464 9.9515 185.003 0.840868C207.306 -8.59141 230.994 -13.3745 255.408 -13.3745H256.253V-7.79095H255.408C231.744 -7.79095 208.788 -3.15656 187.178 5.98297C166.305 14.8121 147.558 27.4514 131.46 43.5499C115.362 59.6486 102.722 78.3955 93.8923 99.2695C84.7531 120.878 80.1185 143.835 80.1185 167.5C80.1185 191.165 84.7531 214.121 93.8923 235.73C102.722 256.604 115.362 275.351 131.46 291.45C147.558 307.548 166.305 320.188 187.178 329.017C208.788 338.156 231.744 342.791 255.408 342.791H256.253V348.374H255.408C230.994 348.374 207.306 343.591 185.003 334.159C163.464 325.048 144.121 312.007 127.512 295.397C110.902 278.786 97.8601 259.443 88.7505 237.905C79.3181 215.604 74.5359 191.917 74.5359 167.5ZM254.563 -11.6828C230.674 -11.5729 207.497 -6.83779 185.662 2.39744C164.324 11.4229 145.161 24.3427 128.707 40.7979C112.251 57.2539 99.3314 76.4167 90.3067 97.7529C80.9636 119.844 76.226 143.311 76.226 167.5C76.226 191.689 80.9636 215.155 90.3067 237.247C99.3314 258.583 112.251 277.746 128.707 294.202C145.161 310.657 164.324 323.577 185.662 332.602C207.497 341.838 230.674 346.573 254.563 346.682V344.479C230.97 344.37 208.082 339.693 186.52 330.573C165.445 321.659 146.518 308.897 130.265 292.645C114.012 276.392 101.251 257.464 92.3362 236.389C83.1076 214.57 78.4287 191.393 78.4287 167.5C78.4287 143.607 83.1076 120.429 92.3362 98.6112C101.251 77.5355 114.012 58.6081 130.265 42.3551C146.518 26.1022 165.445 13.3408 186.52 4.42669C208.082 -4.69299 230.97 -9.37037 254.563 -9.4793V-11.6828Z" fill="#808285"/>
<path d="M100.226 167.5C100.226 146.551 104.329 126.228 112.422 107.095C120.238 88.6154 131.426 72.0197 145.678 57.7685C159.929 43.5175 176.524 32.3283 195.003 24.5123C214.137 16.4197 234.46 12.3164 255.408 12.3164V16.2097C234.983 16.2097 215.171 20.2094 196.52 28.0981C178.505 35.7179 162.326 46.6267 148.431 60.5216C134.536 74.4165 123.627 90.5961 116.007 108.611C108.119 127.262 104.119 147.075 104.119 167.5C104.119 187.925 108.119 207.738 116.007 226.388C123.627 244.404 134.536 260.583 148.431 274.478C162.326 288.373 178.505 299.282 196.52 306.902C215.171 314.79 234.983 318.79 255.408 318.79V322.683C234.46 322.683 214.136 318.58 195.003 310.488C176.524 302.671 159.929 291.482 145.678 277.231C131.426 262.98 120.238 246.384 112.422 227.905C104.329 208.772 100.226 188.449 100.226 167.5Z" fill="#808285"/>
<path d="M99.3809 167.5C99.3809 146.438 103.507 126.004 111.644 106.765C119.502 88.1861 130.751 71.5007 145.08 57.1714C159.409 42.8428 176.094 31.5933 194.674 23.7339C213.912 15.5971 234.345 11.4717 255.408 11.4717H256.253V17.0552H255.408C235.096 17.0552 215.393 21.0327 196.849 28.8766C178.935 36.4532 162.846 47.3016 149.028 61.1193C135.21 74.9368 124.362 91.0265 116.785 108.941C108.942 127.487 104.964 147.189 104.964 167.5C104.964 187.811 108.942 207.513 116.785 226.059C124.362 243.974 135.21 260.063 149.028 273.881C162.845 287.698 178.935 298.547 196.849 306.123C215.393 313.967 235.096 317.945 255.408 317.945H256.253V323.528H255.408C234.345 323.528 213.912 319.403 194.674 311.266C176.094 303.407 159.408 292.157 145.08 277.828C130.751 263.499 119.502 246.814 111.644 228.235C103.507 208.996 99.3809 188.562 99.3809 167.5ZM254.563 13.1643C234.027 13.2732 214.103 17.3515 195.333 25.2902C176.954 33.0647 160.448 44.1929 146.275 58.3664C132.101 72.5406 120.973 89.046 113.2 107.424C105.152 126.453 101.071 146.666 101.071 167.5C101.071 188.334 105.152 208.547 113.2 227.576C120.973 245.954 132.101 262.459 146.275 276.634C160.448 290.807 176.954 301.935 195.333 309.71C214.103 317.648 234.027 321.727 254.563 321.836V319.632C234.322 319.523 214.687 315.504 196.19 307.68C178.075 300.018 161.806 289.048 147.833 275.076C133.86 261.103 122.891 244.833 115.229 226.718C107.296 207.962 103.274 188.038 103.274 167.5C103.274 146.962 107.296 127.038 115.229 108.282C122.891 90.1666 133.86 73.8972 147.833 59.9244C161.806 45.9516 178.075 34.9816 196.19 27.3204C214.687 19.4962 234.322 15.4765 254.563 15.3676V13.1643Z" fill="#808285"/>
<path d="M125.071 167.5C125.071 149.905 128.518 132.836 135.315 116.766C141.879 101.245 151.277 87.3066 163.246 75.3371C175.215 63.3677 189.154 53.9703 204.675 47.4054C220.744 40.6085 237.813 37.1621 255.408 37.1621V41.0554C238.338 41.0554 221.778 44.3982 206.191 50.9913C191.135 57.3596 177.612 66.4771 165.999 78.0902C154.386 89.7034 145.269 103.226 138.9 118.283C132.307 133.87 128.965 150.429 128.965 167.5C128.965 184.571 132.307 201.13 138.9 216.717C145.269 231.774 154.386 245.297 165.999 256.91C177.612 268.523 191.135 277.64 206.191 284.009C221.778 290.602 238.338 293.945 255.408 293.945V297.838C237.814 297.838 220.744 294.392 204.675 287.594C189.154 281.03 175.215 271.632 163.246 259.663C151.277 247.693 141.879 233.755 135.315 218.234C128.518 202.164 125.071 185.095 125.071 167.5Z" fill="#808285"/>
<path d="M124.226 167.5C124.226 149.793 127.695 132.613 134.536 116.437C141.144 100.815 150.602 86.7863 162.648 74.7397C174.697 62.6921 188.725 53.234 204.345 46.6273C220.519 39.786 237.699 36.3169 255.408 36.3169H256.253V41.9003H255.408C238.451 41.9003 222.003 45.221 206.52 51.7693C191.566 58.0938 178.134 67.1509 166.596 78.6876C155.06 90.2234 146.004 103.656 139.678 118.612C133.13 134.094 129.809 150.543 129.809 167.5C129.809 184.457 133.13 200.905 139.678 216.388C146.004 231.344 155.06 244.776 166.596 256.312C178.132 267.848 191.565 276.905 206.52 283.23C222.003 289.778 238.451 293.099 255.408 293.099H256.253V298.683H255.408C237.699 298.683 220.519 295.214 204.345 288.372C188.725 281.766 174.697 272.308 162.648 260.26C150.602 248.213 141.144 234.185 134.536 218.563C127.695 202.387 124.226 185.207 124.226 167.5ZM254.563 38.0093C237.38 38.1183 220.711 41.5396 205.004 48.1836C189.585 54.7054 175.736 64.042 163.843 75.9345C151.952 87.827 142.615 101.675 136.093 117.095C129.34 133.062 125.916 150.02 125.916 167.5C125.916 184.979 129.34 201.938 136.093 217.905C142.615 233.325 151.952 247.173 163.843 259.065C175.736 270.957 189.585 280.294 205.004 286.816C220.711 293.46 237.38 296.881 254.563 296.99V294.787C237.678 294.678 221.296 291.315 205.862 284.787C190.705 278.376 177.092 269.198 165.401 257.507C153.71 245.817 144.532 232.204 138.122 217.047C131.485 201.354 128.119 184.684 128.119 167.5C128.119 150.316 131.485 133.646 138.122 117.953C144.532 102.796 153.71 89.1828 165.401 77.4927C177.093 65.8007 190.707 56.6225 205.862 50.213C221.296 43.6844 237.678 40.3216 254.563 40.2127V38.0093Z" fill="#808285"/>
<path d="M149.917 167.5C149.917 139.322 160.89 112.831 180.814 92.9056C200.739 72.9808 227.23 62.0078 255.408 62.0078V65.9011C228.27 65.9011 202.756 76.4692 183.567 95.6586C164.378 114.848 153.81 140.362 153.81 167.5C153.81 194.638 164.378 220.152 183.567 239.341C202.756 258.531 228.27 269.099 255.408 269.099V272.992C227.23 272.992 200.739 262.019 180.814 242.094C160.89 222.169 149.917 195.678 149.917 167.5Z" fill="#808285"/>
<path d="M149.072 167.5C149.072 139.097 160.132 112.393 180.217 92.3082C200.302 72.2238 227.005 61.1631 255.408 61.1631H256.253V66.7458H255.408C228.496 66.7458 203.195 77.2263 184.165 96.2561C165.135 115.287 154.654 140.588 154.654 167.5C154.654 194.412 165.135 219.713 184.165 238.744C203.194 257.774 228.495 268.254 255.408 268.254H256.253V273.838H255.408C227.004 273.838 200.301 262.776 180.217 242.692C160.132 222.607 149.072 195.903 149.072 167.5ZM254.563 62.8564C226.927 63.0734 200.978 73.9368 181.412 93.5031C161.647 113.269 150.762 139.549 150.762 167.5C150.762 195.451 161.647 221.731 181.412 241.497C200.978 261.063 226.926 271.927 254.563 272.144V269.941C227.515 269.723 202.119 259.088 182.969 239.939C163.621 220.589 152.964 194.863 152.964 167.5C152.964 140.137 163.621 114.411 182.969 95.0612C202.12 75.9117 227.516 65.2769 254.563 65.0591V62.8564Z" fill="#808285"/>
<path d="M174.762 167.5C174.762 145.959 183.151 125.706 198.383 110.474C213.615 95.2423 233.867 86.8535 255.408 86.8535V90.7468C234.907 90.7468 215.632 98.7305 201.136 113.227C186.639 127.724 178.655 146.998 178.655 167.5C178.655 188.002 186.639 207.276 201.136 221.773C215.632 236.27 234.907 244.254 255.408 244.254V248.147C233.867 248.147 213.615 239.758 198.383 224.526C183.151 209.294 174.762 189.042 174.762 167.5Z" fill="#808285"/>
<path d="M173.917 167.5C173.917 145.733 182.393 125.269 197.785 109.877C213.177 94.4851 233.641 86.0083 255.408 86.0083H256.253V91.5919H255.408C235.131 91.5919 216.069 99.4876 201.733 113.824C187.396 128.162 179.5 147.224 179.5 167.5C179.5 187.776 187.396 206.838 201.733 221.176C216.069 235.512 235.131 243.408 255.408 243.408H256.253V248.992H255.408C233.641 248.992 213.177 240.515 197.785 225.124C182.393 209.731 173.917 189.267 173.917 167.5ZM254.563 87.7025C233.564 87.9195 213.854 96.1991 198.98 111.071C183.908 126.144 175.607 146.184 175.607 167.5C175.607 188.816 183.908 208.856 198.98 223.929C213.854 238.801 233.564 247.08 254.563 247.297V245.094C234.151 244.877 214.994 236.827 200.538 222.37C185.882 207.714 177.81 188.227 177.81 167.5C177.81 146.773 185.882 127.286 200.538 112.63C214.994 98.1731 234.151 90.123 254.563 89.9058V87.7025Z" fill="#808285"/>
<path d="M255.408 425.31V414.928C288.813 414.928 321.215 408.387 351.716 395.486C381.178 383.025 407.64 365.183 430.364 342.458C453.089 319.733 470.93 293.272 483.392 263.809C496.292 233.308 502.834 200.905 502.834 167.5C502.834 134.095 496.292 101.692 483.392 71.1916C470.93 41.7285 453.089 15.2671 430.364 -7.45795C407.64 -30.183 381.178 -48.0243 351.716 -60.4861C321.215 -73.3868 288.813 -79.928 255.408 -79.928V-90.3101C290.21 -90.3101 323.973 -83.4928 355.76 -70.0479C386.46 -57.0627 414.031 -38.4743 437.706 -14.7991C461.381 8.87607 479.969 36.4467 492.954 67.1472C506.398 98.9347 513.216 132.698 513.216 167.5C513.216 202.302 506.398 236.065 492.954 267.853C479.969 298.554 461.381 326.124 437.706 349.799C414.031 373.475 386.46 392.063 355.76 405.048C323.973 418.493 290.21 425.31 255.408 425.31Z" fill="#E2E439"/>
<path d="M253.718 427V413.238H255.408C288.585 413.238 320.766 406.742 351.057 393.93C380.319 381.553 406.6 363.833 429.169 341.263C451.74 318.692 469.459 292.411 481.836 263.15C494.648 232.858 501.144 200.677 501.144 167.5C501.144 134.323 494.648 102.142 481.836 71.8498C469.46 42.5886 451.74 16.3085 429.169 -6.26344C406.6 -28.8334 380.319 -46.5529 351.057 -58.9296C320.766 -71.7421 288.585 -78.2384 255.408 -78.2384H253.718V-92H255.408C290.439 -92 324.423 -85.1381 356.419 -71.6044C387.32 -58.5342 415.071 -39.8246 438.901 -15.9944C462.73 7.83495 481.44 35.5867 494.51 66.4883C508.044 98.4859 514.906 132.471 514.906 167.5C514.906 202.529 508.044 236.514 494.51 268.512C481.44 299.413 462.73 327.165 438.901 350.994C415.071 374.825 387.32 393.534 356.419 406.604C324.423 420.138 290.439 427 255.408 427H253.718ZM257.098 416.613V423.614C291.077 423.397 324.04 416.63 355.102 403.492C385.6 390.592 412.99 372.125 436.511 348.605C460.031 325.084 478.497 297.694 491.397 267.195C504.754 235.616 511.526 202.074 511.526 167.5C511.526 132.926 504.754 99.3837 491.397 67.8054C478.497 37.3065 460.031 9.91623 436.511 -13.6045C412.99 -37.1253 385.6 -55.5914 355.102 -68.4915C324.04 -81.6301 291.077 -88.397 257.098 -88.614V-81.6128C290.132 -81.3956 322.179 -74.8145 352.374 -62.0424C382.039 -49.4956 408.681 -31.5328 431.559 -8.65324C454.44 14.2271 472.402 40.8697 484.949 70.5328C497.938 101.244 504.524 133.868 504.524 167.5C504.524 201.132 497.938 233.756 484.949 264.467C472.402 294.13 454.44 320.773 431.559 343.653C408.681 366.533 382.039 384.496 352.374 397.042C322.179 409.815 290.132 416.396 257.098 416.613Z" fill="#E2E439"/>
<path d="M255.408 400.465V390.083C285.459 390.083 314.607 384.199 342.045 372.593C368.549 361.383 392.353 345.333 412.796 324.89C433.239 304.447 449.289 280.642 460.499 254.138C472.104 226.7 477.989 197.551 477.989 167.5C477.989 137.45 472.104 108.3 460.499 80.8627C449.289 54.3583 433.239 30.554 412.796 10.1105C392.353 -10.3326 368.549 -26.3825 342.045 -37.5928C314.607 -49.1981 285.459 -55.0823 255.408 -55.0823V-65.4644C286.855 -65.4644 317.365 -59.304 346.089 -47.1547C373.831 -35.421 398.744 -18.6239 420.137 2.7693C441.531 24.1627 458.327 49.0765 470.061 76.8181C482.21 105.543 488.37 136.052 488.37 167.5C488.37 198.948 482.21 229.458 470.061 258.182C458.327 285.924 441.531 310.838 420.137 332.231C398.744 353.624 373.831 370.421 346.089 382.155C317.365 394.305 286.855 400.465 255.408 400.465Z" fill="#E2E439"/>
<path d="M253.718 402.155V388.392H255.408C285.232 388.392 314.159 382.553 341.386 371.037C367.688 359.911 391.312 343.983 411.601 323.695C431.89 303.406 447.818 279.782 458.943 253.479C470.459 226.251 476.298 197.323 476.298 167.5C476.298 137.677 470.459 108.749 458.943 81.5206C447.818 55.2181 431.89 31.5942 411.601 11.3049C391.312 -8.98335 367.688 -24.9111 341.386 -36.0369C314.159 -47.5531 285.232 -53.3924 255.408 -53.3924H253.718V-67.1548H255.408C287.082 -67.1548 317.813 -60.9498 346.748 -48.7117C374.691 -36.8927 399.785 -19.9739 421.332 1.57394C442.88 23.1215 459.798 48.216 471.617 76.1591C483.855 105.093 490.061 135.825 490.061 167.5C490.061 199.175 483.855 229.907 471.617 258.841C459.798 286.784 442.88 311.879 421.332 333.426C399.785 354.974 374.691 371.893 346.748 383.712C317.813 395.95 287.082 402.155 255.408 402.155L253.718 402.155ZM257.098 391.767V398.769C287.72 398.552 317.431 392.442 345.431 380.599C372.971 368.95 397.704 352.274 418.943 331.036C440.181 309.798 456.856 285.065 468.505 257.524C480.565 229.009 486.681 198.72 486.681 167.5C486.681 136.28 480.565 105.991 468.505 77.4764C456.856 49.935 440.181 25.202 418.943 3.96394C397.704 -17.2743 372.971 -33.9498 345.431 -45.5986C317.431 -57.4416 287.72 -63.5516 257.098 -63.7685V-56.7665C286.78 -56.5495 315.572 -50.6251 342.703 -39.1495C369.408 -27.8536 393.393 -11.6825 413.991 8.91531C434.59 29.5139 450.761 53.4985 462.056 80.2038C473.75 107.852 479.679 137.223 479.679 167.5C479.679 197.778 473.75 227.149 462.056 254.797C450.761 281.502 434.59 305.486 413.991 326.085C393.393 346.683 369.408 362.854 342.703 374.15C315.572 385.626 286.78 391.55 257.098 391.767Z" fill="#E2E439"/>
<path d="M255.408 375.619V365.237C282.105 365.237 307.999 360.01 332.374 349.7C355.919 339.741 377.067 325.483 395.228 307.321C413.389 289.16 427.647 268.012 437.606 244.467C447.916 220.092 453.143 194.197 453.143 167.5C453.143 140.803 447.916 114.908 437.606 90.5334C427.647 66.9876 413.389 45.8404 395.228 27.6788C377.067 9.51726 355.919 -4.74111 332.374 -14.7001C307.999 -25.0096 282.105 -30.2371 255.408 -30.2371V-40.6191C283.502 -40.6191 310.757 -35.1157 336.418 -24.262C361.201 -13.7796 383.458 1.22595 402.569 20.3375C421.68 39.4491 436.686 61.7057 447.168 86.4889C458.022 112.15 463.525 139.406 463.525 167.5C463.525 195.594 458.022 222.849 447.168 248.511C436.686 273.294 421.68 295.551 402.569 314.662C383.458 333.774 361.201 348.779 336.418 359.262C310.757 370.115 283.502 375.619 255.408 375.619Z" fill="#E2E439"/>
<path d="M253.718 377.31V363.547H255.408C281.876 363.547 307.55 358.365 331.715 348.143C355.059 338.269 376.025 324.133 394.033 306.127C412.039 288.12 426.176 267.153 436.05 243.808C446.271 219.643 451.453 193.969 451.453 167.5C451.453 141.031 446.271 115.357 436.05 91.1917C426.176 67.8466 412.039 46.88 394.033 28.8734C376.025 10.8667 355.059 -3.26948 331.715 -13.1433C307.549 -23.3647 281.876 -28.5471 255.408 -28.5471H253.718V-42.3096H255.408C283.729 -42.3096 311.206 -36.7615 337.077 -25.8181C362.061 -15.2511 384.497 -0.124451 403.764 19.143C423.031 38.4097 438.157 60.8461 448.725 85.8308C459.667 111.702 465.215 139.179 465.215 167.5C465.215 195.82 459.667 223.298 448.725 249.17C438.157 274.154 423.031 296.59 403.764 315.858C384.498 335.124 362.061 350.251 337.077 360.818C311.206 371.761 283.729 377.309 255.408 377.309L253.718 377.31ZM257.098 366.921V373.923C284.368 373.707 310.823 368.254 335.76 357.705C360.342 347.308 382.418 332.424 401.374 313.468C420.331 294.51 435.215 272.434 445.612 247.853C456.377 222.401 461.835 195.366 461.835 167.5C461.835 139.635 456.377 112.6 445.612 87.1483C435.215 62.5662 420.331 40.4904 401.374 21.5332C382.416 2.57591 360.341 -12.308 335.76 -22.705C310.823 -33.2532 284.368 -38.7061 257.098 -38.9226V-31.9203C283.424 -31.7041 308.963 -26.4367 333.033 -16.2559C356.779 -6.21192 378.106 8.16773 396.423 26.4837C414.739 44.7997 429.118 66.1271 439.163 89.8748C449.561 114.459 454.834 140.576 454.834 167.5C454.834 194.424 449.561 220.541 439.163 245.126C429.118 268.873 414.739 290.201 396.423 308.517C378.106 326.833 356.779 341.212 333.033 351.256C308.963 361.437 283.424 366.704 257.098 366.921Z" fill="#E2E439"/>
<path d="M255.408 350.774V340.392C278.75 340.392 301.392 335.821 322.703 326.807C343.29 318.1 361.78 305.633 377.66 289.753C393.539 273.873 406.006 255.383 414.713 234.796C423.727 213.484 428.298 190.843 428.298 167.5C428.298 144.158 423.727 121.516 414.713 100.205C406.006 79.6172 393.539 61.1271 377.66 45.2473C361.78 29.3676 343.29 16.9006 322.703 8.19314C301.392 -0.82101 278.75 -5.39141 255.408 -5.39141V-15.7734C280.147 -15.7734 304.149 -10.9269 326.747 -1.36878C348.572 7.86236 368.171 21.0763 385.001 37.9061C401.83 54.7359 415.044 74.3354 424.275 96.1599C433.833 118.758 438.68 142.761 438.68 167.5C438.68 192.239 433.833 216.242 424.275 238.84C415.044 260.664 401.83 280.264 385.001 297.094C368.171 313.924 348.572 327.138 326.747 336.369C304.149 345.927 280.147 350.774 255.408 350.774Z" fill="#E2E439"/>
<path d="M253.718 352.464V338.701H255.408C278.524 338.701 300.943 334.175 322.044 325.251C342.43 316.628 360.74 304.282 376.465 288.557C392.19 272.833 404.535 254.523 413.157 234.137C422.082 213.035 426.608 190.615 426.608 167.5C426.608 144.385 422.082 121.965 413.157 100.863C404.535 80.4768 392.19 62.1674 376.465 46.4426C360.74 30.7178 342.43 18.3724 322.044 9.74948C300.943 0.824614 278.524 -3.70094 255.408 -3.70094H253.718V-17.4634H255.408C280.374 -17.4634 304.598 -12.5722 327.406 -2.92529C349.431 6.39086 369.211 19.7266 386.195 36.7114C403.179 53.6948 416.515 73.4747 425.832 95.5019C435.479 118.31 440.37 142.534 440.37 167.5C440.37 192.467 435.479 216.69 425.832 239.498C416.515 261.525 403.179 281.305 386.195 298.289C369.211 315.273 349.431 328.609 327.406 337.925C304.598 347.572 280.374 352.464 255.408 352.464L253.718 352.464ZM257.098 342.073V349.076C281.012 348.86 304.215 344.064 326.089 334.813C347.711 325.667 367.13 312.574 383.806 295.899C400.48 279.224 413.573 259.806 422.719 238.181C432.188 215.792 436.99 192.011 436.99 167.5C436.99 142.989 432.188 119.208 422.719 96.8189C413.573 75.1944 400.48 55.7759 383.806 39.1014C367.13 22.4258 347.711 9.33272 326.089 0.187553C304.215 -9.06421 281.012 -13.8596 257.098 -14.0758V-7.07288C280.071 -6.85735 302.356 -2.24767 323.361 6.63683C344.15 15.4296 362.821 28.0184 378.855 44.0528C394.889 60.087 407.477 78.758 416.27 99.5463C425.372 121.068 429.988 143.931 429.988 167.5C429.988 191.07 425.372 213.933 416.27 235.454C407.477 256.242 394.889 274.913 378.855 290.947C362.821 306.982 344.15 319.571 323.361 328.363C302.356 337.248 280.071 341.858 257.098 342.073Z" fill="#E2E439"/>
<path d="M255.408 325.928V315.546C275.396 315.546 294.784 311.632 313.032 303.914C330.661 296.458 346.493 285.782 360.091 272.184C373.689 258.586 384.364 242.753 391.821 225.125C399.539 206.876 403.452 187.488 403.452 167.5C403.452 147.512 399.539 128.124 391.821 109.876C384.364 92.2471 373.689 76.4137 360.091 62.8158C346.493 49.2177 330.661 38.5424 313.032 31.0862C294.784 23.3677 275.396 19.4543 255.408 19.4543V9.07227C276.793 9.07227 297.542 13.2617 317.076 21.5244C335.942 29.5043 352.884 40.9268 367.432 55.4747C381.98 70.0227 393.403 86.9652 401.382 105.831C409.645 125.366 413.834 146.115 413.834 167.5C413.834 188.885 409.645 209.634 401.382 229.169C393.403 248.035 381.98 264.977 367.432 279.525C352.884 294.074 335.942 305.496 317.076 313.476C297.541 321.738 276.793 325.928 255.408 325.928Z" fill="#E2E439"/>
<path d="M253.718 327.618V313.856H255.408C275.169 313.856 294.335 309.987 312.374 302.358C329.801 294.986 345.454 284.432 358.897 270.989C372.339 257.547 382.893 241.894 390.264 224.466C397.894 206.427 401.763 187.261 401.763 167.5C401.763 147.739 397.894 128.573 390.264 110.534C382.893 93.1061 372.339 77.4532 358.897 64.0109C345.454 50.5679 329.801 40.014 312.374 32.6422C294.335 25.0129 275.169 21.1442 255.408 21.1442H253.718V7.38184H255.408C277.021 7.38184 297.991 11.6161 317.735 19.9682C336.801 28.0324 353.924 39.5766 368.627 54.2798C383.33 68.982 394.874 86.1057 402.939 105.173C411.29 124.917 415.524 145.886 415.524 167.5C415.524 189.114 411.29 210.083 402.939 229.827C394.874 248.894 383.33 266.018 368.627 280.72C353.924 295.423 336.801 306.967 317.734 315.032C297.99 323.384 277.021 327.618 255.408 327.618L253.718 327.618ZM257.098 317.227V324.229C277.658 324.015 297.608 319.875 316.418 311.919C335.082 304.025 351.844 292.724 366.238 278.33C380.631 263.937 391.931 247.175 399.826 228.51C408 209.185 412.144 188.658 412.144 167.5C412.144 146.342 408 125.815 399.826 106.49C391.931 87.8247 380.631 71.0635 366.238 56.6698C351.844 42.2762 335.082 30.9753 316.418 23.0812C297.608 15.1252 277.658 10.9857 257.098 10.7711V17.7733C276.717 17.988 295.748 21.9407 313.691 29.5296C331.521 37.0714 347.535 47.8686 361.287 61.6212C375.039 75.3728 385.835 91.3866 393.377 109.217C401.184 127.675 405.143 147.284 405.143 167.5C405.143 187.716 401.184 207.325 393.377 225.783C385.835 243.614 375.039 259.627 361.287 273.379C347.535 287.132 331.521 297.929 313.691 305.471C295.748 313.059 276.717 317.012 257.098 317.227Z" fill="#E2E439"/>
<path d="M255.408 301.082V290.7C272.042 290.7 288.176 287.444 303.361 281.021C318.031 274.816 331.207 265.932 342.523 254.616C353.839 243.3 362.723 230.124 368.928 215.454C375.35 200.268 378.607 184.134 378.607 167.5C378.607 150.866 375.35 134.732 368.928 119.547C362.723 104.877 353.839 91.7005 342.523 80.3844C331.207 69.0681 318.031 60.1844 303.361 53.9794C288.176 47.5567 272.042 44.3 255.408 44.3V33.918C273.439 33.918 290.933 37.4507 307.405 44.4177C323.313 51.1459 337.598 60.7771 349.864 73.0432C362.13 85.3096 371.761 99.5948 378.49 115.502C385.456 131.974 388.989 149.469 388.989 167.5C388.989 185.531 385.456 203.026 378.49 219.498C371.761 235.405 362.13 249.691 349.864 261.957C337.598 274.223 323.313 283.854 307.405 290.583C290.933 297.55 273.439 301.082 255.408 301.082Z" fill="#E2E439"/>
<path d="M253.718 302.772V289.011H255.408C271.814 289.011 287.726 285.799 302.703 279.464C317.172 273.344 330.167 264.582 341.328 253.421C352.49 242.259 361.252 229.263 367.371 214.795C373.705 199.819 376.917 183.906 376.917 167.5C376.917 151.094 373.705 135.181 367.371 120.205C361.252 105.737 352.49 92.7414 341.328 81.5793C330.167 70.4181 317.171 61.6559 302.703 55.5359C287.726 49.2013 271.814 45.9895 255.408 45.9895H253.718V32.228H255.408C273.665 32.228 291.381 35.8054 308.064 42.861C324.172 49.6742 338.637 59.4268 351.059 71.8483C363.479 84.268 373.232 98.7343 380.046 114.844C387.102 131.527 390.679 149.243 390.679 167.5C390.679 185.757 387.102 203.473 380.046 220.156C373.232 236.266 363.479 250.732 351.059 263.152C338.637 275.573 324.172 285.326 308.064 292.139C291.381 299.195 273.665 302.772 255.408 302.772L253.718 302.772ZM257.098 292.38V299.382C274.304 299.168 290.999 295.687 306.747 289.026C322.452 282.384 336.557 272.874 348.669 260.762C360.78 248.651 370.289 234.546 376.933 218.84C383.811 202.576 387.299 185.303 387.299 167.5C387.299 149.698 383.811 132.425 376.933 116.161C370.289 100.454 360.78 86.3494 348.669 74.2384C336.557 62.1265 322.452 52.6165 306.747 45.9741C290.999 39.3137 274.304 35.8329 257.098 35.6191V42.6205C273.361 42.8341 289.139 46.1293 304.02 52.4234C318.891 58.7132 332.247 67.7191 343.718 79.1897C355.189 90.6614 364.195 104.018 370.484 118.888C376.995 134.283 380.297 150.638 380.297 167.5C380.297 184.362 376.995 200.718 370.484 216.112C364.195 230.983 355.189 244.339 343.718 255.811C332.248 267.282 318.892 276.287 304.02 282.577C289.139 288.871 273.361 292.166 257.098 292.38Z" fill="#E2E439"/>
<path d="M255.408 276.237V265.855C281.679 265.855 306.378 255.624 324.955 237.047C343.531 218.47 353.762 193.771 353.762 167.5C353.762 141.228 343.531 116.529 324.955 97.9527C306.378 79.3759 281.679 69.1451 255.408 69.1451V58.7632C284.452 58.7632 311.758 70.0738 332.296 90.6115C352.833 111.149 364.144 138.455 364.144 167.5C364.144 196.545 352.833 223.85 332.296 244.388C311.758 264.926 284.452 276.237 255.408 276.237Z" fill="#E2E439"/>
<path d="M253.718 277.927V264.164H255.408C281.227 264.164 305.502 254.11 323.76 235.852C342.017 217.595 352.072 193.32 352.072 167.5C352.072 141.68 342.017 117.405 323.76 99.1476C305.502 80.8903 281.227 70.8356 255.408 70.8356H253.718V57.0732H255.408C284.904 57.0732 312.634 68.5596 333.491 89.4165C354.348 110.273 365.834 138.004 365.834 167.5C365.834 196.996 354.348 224.726 333.491 245.583C312.634 266.44 284.904 277.927 255.408 277.927L253.718 277.927ZM257.098 267.53V274.533C285.059 274.104 311.281 263.013 331.101 243.193C351.319 222.975 362.454 196.093 362.454 167.5C362.454 138.906 351.319 112.025 331.101 91.8063C311.281 71.9867 285.059 60.8955 257.098 60.4664V67.4694C283.188 67.8985 307.653 78.2608 326.15 96.7576C345.045 115.653 355.452 140.777 355.452 167.5C355.452 194.223 345.045 219.347 326.15 238.242C307.653 256.739 283.188 267.101 257.098 267.53Z" fill="#E2E439"/>
<path d="M255.408 251.391V241.009C275.043 241.009 293.503 233.363 307.386 219.479C321.27 205.595 328.916 187.135 328.916 167.5C328.916 147.865 321.27 129.405 307.386 115.521C293.503 101.637 275.043 93.9908 255.408 93.9908V83.6089C277.816 83.6089 298.883 92.3351 314.727 108.18C330.572 124.025 339.298 145.092 339.298 167.5C339.298 189.908 330.572 210.975 314.727 226.82C298.883 242.665 277.816 251.391 255.408 251.391Z" fill="#E2E439"/>
<path d="M253.718 253.082V239.319H255.408C274.591 239.319 292.627 231.848 306.192 218.284C319.756 204.72 327.226 186.684 327.226 167.5C327.226 148.316 319.756 130.282 306.192 116.716C292.627 103.152 274.591 95.6811 255.408 95.6811H253.718V81.9194H255.408C278.267 81.9194 299.758 90.8212 315.922 106.985C332.086 123.15 340.988 144.64 340.988 167.5C340.988 190.36 332.086 211.851 315.922 228.015C299.758 244.18 278.267 253.082 255.408 253.082L253.718 253.082ZM257.098 242.681V249.684C278.422 249.258 298.405 240.752 313.532 225.626C329.058 210.1 337.608 189.457 337.608 167.5C337.608 145.543 329.058 124.901 313.532 109.375C298.406 94.2484 278.422 85.7437 257.098 85.3162V92.3192C276.552 92.745 294.777 100.522 308.582 114.326C322.785 128.53 330.606 147.414 330.606 167.5C330.606 187.586 322.785 206.471 308.582 220.674C294.777 234.479 276.552 242.256 257.098 242.681Z" fill="#E2E439"/>
</svg>
