<svg width="300" height="519" viewBox="0 0 300 519" fill="none" xmlns="http://www.w3.org/2000/svg">
<g opacity="0.2">
<path d="M260.079 295.398C240.254 295.398 224.181 279.316 224.181 259.495C224.181 239.675 240.255 223.606 260.079 223.606C279.904 223.606 295.973 239.675 295.973 259.495C295.973 279.316 279.904 295.398 260.079 295.398Z" fill="#E2E439"/>
<path d="M189.41 259.495C189.41 277.54 202.727 292.473 220.074 295.001V223.989C202.727 226.522 189.41 241.446 189.41 259.495Z" fill="#E2E439"/>
<path d="M153.138 259.495C153.138 275.911 164.159 289.744 179.205 294.02V224.966C164.159 229.247 153.138 243.075 153.138 259.495Z" fill="#E2E439"/>
<path d="M118.366 259.495C118.366 274.04 127.024 286.549 139.455 292.19V226.81C127.024 232.441 118.366 244.942 118.366 259.495Z" fill="#E2E439"/>
<path d="M83.5911 259.495C83.5911 272.005 90.003 282.994 99.7009 289.411V229.584C90.003 235.996 83.5911 246.986 83.5911 259.495Z" fill="#E2E439"/>
<path d="M57.0895 285.053V233.948C50.4721 240.446 46.3557 249.478 46.3557 259.496C46.3557 269.513 50.4721 278.545 57.0895 285.053Z" fill="#E2E439"/>
<path d="M17.3075 280.639V238.352C12.9628 244.275 10.3799 251.577 10.3799 259.495C10.3799 267.418 12.9628 274.72 17.3075 280.639Z" fill="#E2E439"/>
<path d="M260.075 295.398C279.895 295.398 295.973 279.316 295.973 259.495C295.973 239.675 279.895 223.606 260.075 223.606C240.25 223.606 224.181 239.675 224.181 259.495C224.181 279.316 240.25 295.398 260.075 295.398Z" fill="#E2E439"/>
<path d="M268.317 224.522C242.11 218.697 219.267 241.537 225.099 267.738C228.035 280.929 238.685 291.57 251.88 294.49C278.054 300.282 300.852 277.481 295.066 251.301C292.15 238.105 281.509 227.455 268.317 224.522Z" fill="#E2E439"/>
<path d="M17.3075 280.639C12.9628 274.72 10.3799 267.418 10.3799 259.495C10.3799 251.577 12.9628 244.275 17.3075 238.352" fill="#E2E439"/>
<path d="M290.228 344.226C293.378 323.599 275.888 306.1 255.267 309.248C242.414 311.21 231.905 321.708 229.926 334.558C226.751 355.19 244.263 372.713 264.904 369.555C277.759 367.588 288.264 357.081 290.228 344.226Z" fill="#CDCFD0"/>
<path d="M284.928 423.29C287.538 406.282 273.092 391.839 256.083 394.458C245.49 396.088 236.838 404.75 235.222 415.344C232.629 432.342 247.066 446.764 264.059 444.159C274.649 442.535 283.303 433.88 284.928 423.29Z" fill="#CDCFD0"/>
<path d="M240.664 495.309C238 509.255 249.989 521.274 263.949 518.633C271.698 517.168 278.036 510.825 279.498 503.074C282.129 489.125 270.142 477.144 256.212 479.781C248.473 481.246 242.142 487.572 240.664 495.309Z" fill="#CDCFD0"/>
<path d="M194.778 339.407C194.778 354.472 205.707 366.981 220.074 369.473V309.336C205.707 311.805 194.778 324.333 194.778 339.407Z" fill="#CDCFD0"/>
<path d="M200.149 419.305C200.149 431.399 208.692 441.503 220.074 443.917V394.697C208.692 397.102 200.149 407.202 200.149 419.305Z" fill="#CDCFD0"/>
<path d="M205.515 499.211C205.515 508.321 211.686 515.97 220.074 518.279V480.14C211.686 482.444 205.515 490.084 205.515 499.211Z" fill="#CDCFD0"/>
<path d="M158.51 339.407C158.51 352.815 167.176 364.206 179.206 368.3V310.514C167.176 314.598 158.51 325.976 158.51 339.407Z" fill="#CDCFD0"/>
<path d="M163.876 419.305C163.876 429.71 170.202 438.623 179.206 442.438V396.167C170.202 399.991 163.876 408.904 163.876 419.305Z" fill="#CDCFD0"/>
<path d="M169.247 499.212C169.247 506.56 173.255 512.953 179.206 516.362V482.047C173.255 485.466 169.247 491.859 169.247 499.212Z" fill="#CDCFD0"/>
<path d="M123.734 339.407C123.734 350.871 130.086 360.857 139.456 366.064V312.741C130.086 317.939 123.734 327.925 123.734 339.407Z" fill="#CDCFD0"/>
<path d="M129.105 419.305C129.105 427.661 133.186 435.04 139.456 439.618V399C133.186 403.569 129.105 410.949 129.105 419.305Z" fill="#CDCFD0"/>
<path d="M134.476 499.212C134.476 504.246 136.357 508.828 139.456 512.301V486.109C136.357 489.596 134.476 494.174 134.476 499.212Z" fill="#CDCFD0"/>
<path d="M88.9626 339.407C88.9626 348.699 93.134 357.005 99.7009 362.609V316.196C93.134 321.786 88.9626 330.102 88.9626 339.407Z" fill="#CDCFD0"/>
<path d="M49.4769 339.407C49.4769 347.124 52.3622 354.161 57.0894 359.528V319.285C52.3622 324.648 49.4769 331.68 49.4769 339.407Z" fill="#CDCFD0"/>
<path d="M92.7045 419.305C92.7045 426.05 95.3699 432.161 99.7009 436.684V401.921C95.3699 406.449 92.7045 412.555 92.7045 419.305Z" fill="#CDCFD0"/>
<path d="M290.222 174.73C288.238 161.878 277.728 151.379 264.873 149.423C244.238 146.282 226.741 163.837 229.929 184.462C231.915 197.31 242.432 207.798 255.286 209.754C275.913 212.893 293.403 195.363 290.222 174.73Z" fill="#CDCFD0"/>
<path d="M284.92 95.6575C283.271 85.0783 274.611 76.4445 264.026 74.8362C247.057 72.2574 232.647 86.6482 235.219 103.63C236.822 114.227 245.467 122.896 256.057 124.538C273.096 127.181 287.572 112.683 284.92 95.6575Z" fill="#CDCFD0"/>
<path d="M279.493 15.9008C278.022 8.1545 271.68 1.82188 263.931 0.363049C249.981 -2.26275 238.005 9.74859 240.664 23.6787C242.14 31.4165 248.474 37.7413 256.215 39.206C270.151 41.843 282.143 29.8455 279.493 15.9008Z" fill="#CDCFD0"/>
<path d="M194.778 179.593C194.778 194.672 205.707 207.181 220.074 209.659V149.518C205.707 152.005 194.778 164.519 194.778 179.593Z" fill="#CDCFD0"/>
<path d="M200.149 99.6952C200.149 111.789 208.692 121.884 220.074 124.298V75.083C208.692 77.4925 200.149 87.5879 200.149 99.6952Z" fill="#CDCFD0"/>
<path d="M205.515 19.7835C205.515 28.9019 211.686 36.551 220.074 38.8511V0.716309C211.686 3.01634 205.515 10.6651 205.515 19.7835Z" fill="#CDCFD0"/>
<path d="M158.51 179.593C158.51 193.015 167.176 204.397 179.206 208.486V150.7C167.176 154.789 158.51 166.175 158.51 179.593Z" fill="#CDCFD0"/>
<path d="M163.876 99.6955C163.876 110.083 170.202 119 179.206 122.838V76.5483C170.202 80.377 163.876 89.281 163.876 99.6955Z" fill="#CDCFD0"/>
<path d="M169.247 19.7837C169.247 27.136 173.255 33.5298 179.206 36.9344V2.64258C173.255 6.04715 169.247 12.4272 169.247 19.7837Z" fill="#CDCFD0"/>
<path d="M123.734 179.593C123.734 191.071 130.086 201.047 139.456 206.25V152.927C130.086 158.144 123.734 168.12 123.734 179.593Z" fill="#CDCFD0"/>
<path d="M129.105 99.6951C129.105 108.038 133.186 115.426 139.456 119.986V79.3818C133.186 83.9549 129.105 91.3342 129.105 99.6951Z" fill="#CDCFD0"/>
<path d="M134.476 19.7838C134.476 24.8222 136.357 29.4045 139.456 32.8912V6.68604C136.357 10.1681 134.476 14.7454 134.476 19.7838Z" fill="#CDCFD0"/>
<path d="M88.9626 179.593C88.9626 188.894 93.134 197.205 99.7009 202.791V156.391C93.134 161.982 88.9626 170.297 88.9626 179.593Z" fill="#CDCFD0"/>
<path d="M49.4769 179.593C49.4769 187.315 52.3622 194.343 57.0894 199.706V159.471C52.3622 164.838 49.4769 171.862 49.4769 179.593Z" fill="#CDCFD0"/>
<path d="M92.7046 99.6954C92.7046 106.441 95.37 112.547 99.701 117.065V82.3169C95.37 86.8256 92.7046 92.9411 92.7046 99.6954Z" fill="#CDCFD0"/>
</g>
</svg>
