<svg width="362" height="355" viewBox="0 0 362 355" fill="none" xmlns="http://www.w3.org/2000/svg">
<g opacity="0.1">
<path d="M346.208 103.815C354.43 103.815 361.096 97.1496 361.096 88.9275C361.096 80.7054 354.43 74.04 346.208 74.04C337.986 74.04 331.321 80.7054 331.321 88.9275C331.321 97.1496 337.986 103.815 346.208 103.815Z" fill="#CDCFD0"/>
<path d="M312.518 137.506C320.74 137.506 327.405 130.841 327.405 122.618C327.405 114.396 320.74 107.731 312.518 107.731C304.296 107.731 297.631 114.396 297.631 122.618C297.631 130.841 304.296 137.506 312.518 137.506Z" fill="#CDCFD0"/>
<path d="M278.827 171.197C287.049 171.197 293.715 164.531 293.715 156.309C293.715 148.087 287.049 141.422 278.827 141.422C270.605 141.422 263.94 148.087 263.94 156.309C263.94 164.531 270.605 171.197 278.827 171.197Z" fill="#CDCFD0"/>
<path d="M195.81 20.7974C204.032 20.7974 210.698 14.132 210.698 5.90991C210.698 -2.3122 204.032 -8.97754 195.81 -8.97754C187.588 -8.97754 180.923 -2.3122 180.923 5.90991C180.923 14.132 187.588 20.7974 195.81 20.7974Z" fill="#CDCFD0"/>
<path d="M208.142 66.8198C216.364 66.8198 223.029 60.1545 223.029 51.9324C223.029 43.7103 216.364 37.0449 208.142 37.0449C199.92 37.0449 193.255 43.7103 193.255 51.9324C193.255 60.1545 199.92 66.8198 208.142 66.8198Z" fill="#CDCFD0"/>
<path d="M220.474 112.842C228.696 112.842 235.361 106.177 235.361 97.9548C235.361 89.7327 228.696 83.0674 220.474 83.0674C212.252 83.0674 205.586 89.7327 205.586 97.9548C205.586 106.177 212.252 112.842 220.474 112.842Z" fill="#CDCFD0"/>
<path d="M232.805 158.865C241.027 158.865 247.692 152.199 247.692 143.977C247.692 135.755 241.027 129.09 232.805 129.09C224.583 129.09 217.918 135.755 217.918 143.977C217.918 152.199 224.583 158.865 232.805 158.865Z" fill="#CDCFD0"/>
<path d="M15.0264 143.229C23.2484 143.229 29.9137 136.564 29.9137 128.342C29.9137 120.119 23.2484 113.454 15.0264 113.454C6.80432 113.454 0.139038 120.119 0.139038 128.342C0.139038 136.564 6.80432 143.229 15.0264 143.229Z" fill="#CDCFD0"/>
<path d="M61.0485 155.561C69.2705 155.561 75.9358 148.895 75.9358 140.673C75.9358 132.451 69.2705 125.786 61.0485 125.786C52.8264 125.786 46.1611 132.451 46.1611 140.673C46.1611 148.895 52.8264 155.561 61.0485 155.561Z" fill="#CDCFD0"/>
<path d="M107.071 167.892C115.293 167.892 121.958 161.227 121.958 153.005C121.958 144.783 115.293 138.117 107.071 138.117C98.8485 138.117 92.1832 144.783 92.1832 153.005C92.1832 161.227 98.8485 167.892 107.071 167.892Z" fill="#CDCFD0"/>
<path d="M153.093 180.224C161.315 180.224 167.98 173.559 167.98 165.337C167.98 157.115 161.315 150.449 153.093 150.449C144.871 150.449 138.205 157.115 138.205 165.337C138.205 173.559 144.871 180.224 153.093 180.224Z" fill="#CDCFD0"/>
<path d="M199.115 192.556C207.337 192.556 214.002 185.89 214.002 177.668C214.002 169.446 207.337 162.781 199.115 162.781C190.893 162.781 184.227 169.446 184.227 177.668C184.227 185.89 190.893 192.556 199.115 192.556Z" fill="#CDCFD0"/>
<path d="M76.6842 373.341C84.9062 373.341 91.5715 366.676 91.5715 358.454C91.5715 350.232 84.9062 343.566 76.6842 343.566C68.4622 343.566 61.7969 350.232 61.7969 358.454C61.7969 366.676 68.4622 373.341 76.6842 373.341Z" fill="#CDCFD0"/>
<path d="M110.375 339.651C118.597 339.651 125.262 332.986 125.262 324.763C125.262 316.541 118.597 309.876 110.375 309.876C102.153 309.876 95.4874 316.541 95.4874 324.763C95.4874 332.986 102.153 339.651 110.375 339.651Z" fill="#CDCFD0"/>
<path d="M144.065 305.96C152.287 305.96 158.952 299.295 158.952 291.073C158.952 282.85 152.287 276.185 144.065 276.185C135.843 276.185 129.178 282.85 129.178 291.073C129.178 299.295 135.843 305.96 144.065 305.96Z" fill="#CDCFD0"/>
<path d="M177.756 272.269C185.978 272.269 192.643 265.604 192.643 257.382C192.643 249.159 185.978 242.494 177.756 242.494C169.534 242.494 162.868 249.159 162.868 257.382C162.868 265.604 169.534 272.269 177.756 272.269Z" fill="#CDCFD0"/>
<path d="M211.446 238.578C219.668 238.578 226.334 231.913 226.334 223.691C226.334 215.469 219.668 208.803 211.446 208.803C203.224 208.803 196.559 215.469 196.559 223.691C196.559 231.913 203.224 238.578 211.446 238.578Z" fill="#CDCFD0"/>
<path d="M282.131 342.955C290.353 342.955 297.019 336.29 297.019 328.068C297.019 319.845 290.353 313.18 282.131 313.18C273.909 313.18 267.244 319.845 267.244 328.068C267.244 336.29 273.909 342.955 282.131 342.955Z" fill="#CDCFD0"/>
<path d="M269.8 296.933C278.022 296.933 284.687 290.267 284.687 282.045C284.687 273.823 278.022 267.158 269.8 267.158C261.578 267.158 254.913 273.823 254.913 282.045C254.913 290.267 261.578 296.933 269.8 296.933Z" fill="#CDCFD0"/>
<path d="M257.468 250.91C265.69 250.91 272.356 244.245 272.356 236.023C272.356 227.801 265.69 221.135 257.468 221.135C249.246 221.135 242.581 227.801 242.581 236.023C242.581 244.245 249.246 250.91 257.468 250.91Z" fill="#CDCFD0"/>
<path d="M337.181 229.551C345.403 229.551 352.068 222.885 352.068 214.663C352.068 206.441 345.403 199.776 337.181 199.776C328.959 199.776 322.294 206.441 322.294 214.663C322.294 222.885 328.959 229.551 337.181 229.551Z" fill="#CDCFD0"/>
<path d="M291.159 217.219C299.381 217.219 306.046 210.554 306.046 202.332C306.046 194.11 299.381 187.444 291.159 187.444C282.937 187.444 276.272 194.11 276.272 202.332C276.272 210.554 282.937 217.219 291.159 217.219Z" fill="#CDCFD0"/>
<path d="M245.137 205.141C253.359 205.141 260.024 198.475 260.024 190.253C260.024 182.031 253.359 175.366 245.137 175.366C236.915 175.366 230.25 182.031 230.25 190.253C230.25 198.475 236.915 205.141 245.137 205.141Z" fill="#E2E439"/>
</g>
</svg>
