<svg width="520" height="519" viewBox="0 0 520 519" fill="none" xmlns="http://www.w3.org/2000/svg">
<g opacity="0.2">
<mask id="mask0_0_2611" style="mask-type:luminance" maskUnits="userSpaceOnUse" x="0" y="0" width="520" height="519">
<path d="M447.78 79.8967C546.222 182.506 543.766 345.508 441.842 445.103C339.339 545.265 175.046 543.366 74.8851 440.863C-25.2795 338.355 -23.3808 174.06 79.1219 73.8983C181.046 -25.6974 344.059 -24.3859 444.369 76.4062C378.795 11.1632 272.76 10.5101 206.385 75.3691C139.673 140.557 138.196 247.327 202.901 314.334C203.138 314.584 203.374 314.827 203.615 315.073C203.856 315.319 204.093 315.562 204.337 315.804C269.827 382.037 376.605 383.031 443.317 317.843C509.692 252.984 511.485 146.957 447.78 79.8967Z" fill="white"/>
</mask>
<g mask="url(#mask0_0_2611)">
<path d="M-104.763 228.373L-121.405 244.635L269.849 645.043L286.491 628.781L-104.763 228.373Z" fill="#CDCFD0"/>
<path d="M-85.901 209.941L-101.808 225.485L289.449 625.892L305.356 610.348L-85.901 209.941Z" fill="#CDCFD0"/>
<path d="M-67.0367 191.508L-82.209 206.334L309.046 606.742L324.218 591.917L-67.0367 191.508Z" fill="#CDCFD0"/>
<path d="M-48.1733 173.076L-62.6106 187.183L328.644 587.591L343.081 573.484L-48.1733 173.076Z" fill="#CDCFD0"/>
<path d="M-29.3114 154.645L-43.0137 168.034L348.243 568.44L361.945 555.051L-29.3114 154.645Z" fill="#CDCFD0"/>
<path d="M-10.4467 136.211L-23.4141 148.882L367.839 549.291L380.806 536.62L-10.4467 136.211Z" fill="#CDCFD0"/>
<path d="M8.41491 117.78L-3.81738 129.733L387.439 530.139L399.672 518.186L8.41491 117.78Z" fill="#CDCFD0"/>
<path d="M27.2784 99.3472L15.781 110.582L407.037 510.989L418.534 499.754L27.2784 99.3472Z" fill="#CDCFD0"/>
<path d="M46.143 80.9137L35.3806 91.4302L426.634 491.84L437.396 481.323L46.143 80.9137Z" fill="#CDCFD0"/>
<path d="M65.0062 62.4809L54.9788 72.2793L446.232 472.689L456.259 462.891L65.0062 62.4809Z" fill="#CDCFD0"/>
<path d="M83.8714 44.0469L74.5789 53.127L465.828 453.541L475.12 444.461L83.8714 44.0469Z" fill="#CDCFD0"/>
<path d="M102.733 25.616L94.1753 33.978L485.428 434.388L493.985 426.026L102.733 25.616Z" fill="#CDCFD0"/>
<path d="M121.596 7.18336L113.774 14.8271L505.026 415.238L512.848 407.594L121.596 7.18336Z" fill="#CDCFD0"/>
<path d="M140.46 -11.2488L133.372 -4.32324L524.623 396.089L531.711 389.163L140.46 -11.2488Z" fill="#CDCFD0"/>
<path d="M159.323 -29.6815L152.971 -23.4741L544.221 376.938L550.574 370.731L159.323 -29.6815Z" fill="#CDCFD0"/>
<path d="M178.184 -48.1114L172.566 -42.6221L563.822 357.785L569.44 352.296L178.184 -48.1114Z" fill="#CDCFD0"/>
<path d="M197.051 -66.5474L192.168 -61.7764L583.416 338.638L588.299 333.867L197.051 -66.5474Z" fill="#CDCFD0"/>
<path d="M215.91 -84.9762L211.763 -80.9233L603.018 319.484L607.166 315.431L215.91 -84.9762Z" fill="#CDCFD0"/>
<path d="M234.774 -103.408L231.361 -100.074L622.616 300.335L626.029 297L234.774 -103.408Z" fill="#CDCFD0"/>
<path d="M253.637 -121.842L250.96 -119.225L642.214 281.184L644.891 278.567L253.637 -121.842Z" fill="#CDCFD0"/>
</g>
<mask id="mask1_0_2611" style="mask-type:luminance" maskUnits="userSpaceOnUse" x="155" y="27" width="340" height="340">
<path d="M202.901 314.334C138.196 247.327 139.673 140.557 206.385 75.369C272.76 10.5099 378.795 11.163 444.369 76.406C444.943 76.9771 445.517 77.556 446.087 78.1394C446.657 78.7223 447.222 79.3095 447.78 79.8966C511.486 146.957 509.692 252.984 443.317 317.843C376.605 383.031 269.827 382.037 204.337 315.804" fill="white"/>
</mask>
<g mask="url(#mask1_0_2611)">
<path d="M253.637 -121.841L236.995 -105.579L628.249 294.829L644.892 278.567L253.637 -121.841Z" fill="#E2E439"/>
<path d="M234.038 -102.69L218.131 -87.146L609.388 313.26L625.295 297.716L234.038 -102.69Z" fill="#E2E439"/>
<path d="M214.441 -83.5405L199.269 -68.7148L590.523 331.694L605.695 316.868L214.441 -83.5405Z" fill="#E2E439"/>
<path d="M194.842 -64.3901L180.405 -50.2827L571.66 350.126L586.097 336.018L194.842 -64.3901Z" fill="#E2E439"/>
<path d="M175.245 -45.2394L161.543 -31.8501L552.797 368.559L566.499 355.17L175.245 -45.2394Z" fill="#E2E439"/>
<path d="M155.647 -26.0891L142.679 -13.418L533.933 386.991L546.901 374.32L155.647 -26.0891Z" fill="#E2E439"/>
<path d="M136.049 -6.93875L123.816 5.01416L515.07 405.423L527.303 393.47L136.049 -6.93875Z" fill="#E2E439"/>
<path d="M116.451 12.2116L104.954 23.4463L496.207 423.856L507.704 412.621L116.451 12.2116Z" fill="#E2E439"/>
<path d="M96.8527 31.3619L86.0903 41.8784L477.344 442.288L488.106 431.772L96.8527 31.3619Z" fill="#E2E439"/>
<path d="M77.2548 50.5122L67.2273 60.3105L458.481 460.72L468.508 450.922L77.2548 50.5122Z" fill="#E2E439"/>
<path d="M57.6549 69.664L48.3625 78.7441L439.619 479.151L448.911 470.071L57.6549 69.664Z" fill="#E2E439"/>
<path d="M38.0587 88.8129L29.5012 97.1748L420.754 497.585L429.311 489.223L38.0587 88.8129Z" fill="#E2E439"/>
<path d="M18.4586 107.966L10.6362 115.609L401.892 516.016L409.715 508.373L18.4586 107.966Z" fill="#E2E439"/>
<path d="M-1.13931 127.116L-8.22681 134.042L383.029 534.448L390.117 527.523L-1.13931 127.116Z" fill="#CDCFD0"/>
<path d="M-20.7346 146.263L-27.0872 152.471L364.163 552.883L370.516 546.676L-20.7346 146.263Z" fill="#CDCFD0"/>
<path d="M-40.3355 165.416L-45.9531 170.906L345.303 571.313L350.92 565.823L-40.3355 165.416Z" fill="#CDCFD0"/>
<path d="M-59.9336 184.567L-64.8162 189.338L326.44 589.745L331.322 584.974L-59.9336 184.567Z" fill="#CDCFD0"/>
<path d="M-79.5314 203.717L-83.679 207.77L307.576 608.178L311.724 604.125L-79.5314 203.717Z" fill="#CDCFD0"/>
<path d="M-99.1293 222.868L-102.542 226.203L288.713 626.611L292.125 623.276L-99.1293 222.868Z" fill="#CDCFD0"/>
<path d="M-118.727 242.018L-121.405 244.634L269.849 645.043L272.527 642.427L-118.727 242.018Z" fill="#CDCFD0"/>
</g>
</g>
</svg>
