<svg width="32" height="32" viewBox="0 0 32 32" fill="none" xmlns="http://www.w3.org/2000/svg">
<g id="Insta">
<path id="Subtract" fill-rule="evenodd" clip-rule="evenodd" d="M16 32C24.8366 32 32 24.8366 32 16C32 7.16344 24.8366 0 16 0C7.16344 0 0 7.16344 0 16C0 24.8366 7.16344 32 16 32ZM16.0003 13.3331C14.5276 13.3331 13.334 14.5274 13.334 16C13.334 17.4726 14.5276 18.6669 16.0003 18.6669C17.473 18.6669 18.6673 17.4726 18.6673 16C18.6673 14.5274 17.473 13.3331 16.0003 13.3331ZM16.0003 20.1082C13.7314 20.1082 11.892 18.2688 11.892 16C11.892 13.7312 13.7314 11.8918 16.0003 11.8918C18.2692 11.8918 20.1086 13.7312 20.1086 16C20.1086 18.2688 18.2692 20.1082 16.0003 20.1082ZM20.2706 12.6899C19.7406 12.6893 19.3112 12.2592 19.3112 11.7293C19.3112 11.1994 19.7413 10.7699 20.2712 10.7699H20.2719C20.8018 10.7706 21.2319 11.2006 21.2313 11.7306C21.2306 12.2605 20.8005 12.6899 20.2706 12.6899ZM11.2827 22.2368C11.5643 22.3462 11.988 22.4762 12.7682 22.512C13.6111 22.5504 13.8633 22.5587 16.0003 22.5587C18.1374 22.5587 18.3902 22.551 19.2337 22.512C20.0133 22.4768 20.4376 22.3469 20.7192 22.2368C21.093 22.0915 21.3599 21.9181 21.6396 21.6384C21.9193 21.3587 22.0927 21.0925 22.238 20.7187C22.3475 20.4371 22.4774 20.0134 22.5132 19.2333C22.5523 18.3891 22.5599 18.137 22.5599 16C22.5599 13.863 22.5523 13.6109 22.5132 12.7667C22.478 11.9872 22.3481 11.5629 22.238 11.2813C22.0927 10.9075 21.9199 10.6406 21.6396 10.361C21.3593 10.0813 21.093 9.9072 20.7192 9.76256C20.437 9.65376 20.0139 9.5232 19.2337 9.48736C18.3895 9.44896 18.1361 9.44064 16.0003 9.44064C13.8646 9.44064 13.6117 9.44832 12.7682 9.48736C11.9886 9.52256 11.5643 9.65248 11.2827 9.76256C10.9083 9.9072 10.642 10.0806 10.3623 10.361C10.0826 10.6413 9.9092 10.9075 9.76391 11.2813C9.65511 11.5635 9.52454 11.9866 9.4887 12.7667C9.4503 13.6109 9.44198 13.863 9.44198 16C9.44198 18.137 9.44966 18.3898 9.4887 19.2333C9.5239 20.0128 9.65383 20.4371 9.76391 20.7187C9.90856 21.0925 10.082 21.3587 10.3623 21.6384C10.6427 21.9181 10.9089 22.0915 11.2827 22.2368ZM10.7604 8.42048C11.2686 8.22272 11.8504 8.08768 12.7023 8.04864C13.5554 8.00896 13.8281 8 16.001 8C18.1738 8 18.4465 8.0096 19.2997 8.048C20.1509 8.0864 20.732 8.22208 21.2415 8.41984C21.7663 8.624 22.2124 8.89856 22.6572 9.34336C23.102 9.78816 23.3753 10.2342 23.5801 10.7603C23.7779 11.2685 23.913 11.8502 23.952 12.7021C23.991 13.5546 24 13.8278 24 16C24 18.1722 23.991 18.4442 23.952 19.2979C23.9136 20.1498 23.7779 20.7309 23.5801 21.2397C23.3753 21.7658 23.102 22.2118 22.6572 22.6566C22.2124 23.1014 21.7663 23.3747 21.2402 23.5795C20.7314 23.7773 20.1502 23.9123 19.2984 23.9514C18.4459 23.991 18.1726 24 16.0003 24C13.8281 24 13.5554 23.9904 12.7023 23.9514C11.8504 23.9123 11.2699 23.7773 10.7604 23.5795C10.2343 23.3747 9.78887 23.1008 9.34341 22.6566C8.89796 22.2125 8.62467 21.7658 8.4205 21.2397C8.22273 20.7309 8.08768 20.1498 8.04864 19.2979C8.00896 18.4454 8 18.1728 8 16C8 13.8272 8.00896 13.5546 8.048 12.7014C8.08704 11.8496 8.22209 11.2685 8.41986 10.7597C8.62403 10.2336 8.89732 9.78688 9.34277 9.34272C9.78823 8.89856 10.2337 8.624 10.7604 8.42048Z" fill="white"/>
</g>
</svg>
