<svg width="32" height="32" viewBox="0 0 32 32" fill="none" xmlns="http://www.w3.org/2000/svg">
<g id="Linkedin">
<path id="Subtract" fill-rule="evenodd" clip-rule="evenodd" d="M16 32C24.8366 32 32 24.8366 32 16C32 7.16344 24.8366 0 16 0C7.16344 0 0 7.16344 0 16C0 24.8366 7.16344 32 16 32ZM17.0662 14.6099L17.0661 14.61L17.0659 14.6102C17.05 14.6266 17.0299 14.6474 17.0037 14.6755C17.0037 14.5367 17.0029 14.4043 17.0021 14.2764V14.276V14.2756C17.0003 13.9788 16.9986 13.7061 17.0075 13.4338C17.0135 13.2526 16.9615 13.1964 16.7752 13.1982C15.7405 13.2069 14.7057 13.2086 13.6708 13.197C13.4568 13.1946 13.4134 13.2559 13.4148 13.4631C13.428 15.3556 13.4318 17.248 13.4315 19.1406C13.4308 20.6786 13.4247 22.2171 13.4095 23.7549C13.4074 23.9613 13.4748 23.9995 13.6626 23.998C14.6973 23.9899 15.732 23.9906 16.7669 23.9976C16.9421 23.9988 17.0212 23.9615 17.0069 23.7681C16.9956 23.613 16.9982 23.4569 17.0008 23.3007C17.002 23.2329 17.0031 23.1651 17.0031 23.0973C17.0031 22.5984 17.0037 22.0996 17.0042 21.6007C17.0055 20.3935 17.0068 19.1863 17.0004 17.979C16.9962 17.2654 17.2147 16.6591 17.7735 16.2006C18.8079 15.3516 20.2604 15.7998 20.6308 17.0765C20.7464 17.4746 20.7746 17.883 20.7753 18.2941L20.7758 18.7741C20.7775 20.4226 20.7793 22.0712 20.7717 23.7198C20.7706 23.9386 20.8275 24.0019 21.0498 23.9995C22.0659 23.9874 23.0822 23.9873 24.0982 23.9995C24.322 24.0022 24.3757 23.9381 24.3745 23.7197C24.3674 22.0663 24.3686 20.4129 24.3698 18.7594V18.7594V18.7593L24.3703 17.902C24.3707 17.4351 24.3357 16.9714 24.2652 16.5095C23.9681 14.5618 22.8044 13.2888 20.9859 13.0089C19.4123 12.7671 18.0636 13.1722 17.1193 14.55C17.1073 14.5675 17.0923 14.5829 17.0662 14.6099ZM11.4411 19.8172V19.8173C11.4404 21.1167 11.4397 22.4163 11.4458 23.7158C11.4467 23.9276 11.404 24.003 11.1731 23.9999C10.1482 23.9863 9.123 23.9895 8.09793 23.9981C7.90762 23.9997 7.84344 23.9521 7.84366 23.7521C7.84866 20.3131 7.84779 16.8742 7.84271 13.4353C7.8425 13.2562 7.88616 13.1963 8.07414 13.198C9.11799 13.207 10.1618 13.208 11.2055 13.1973C11.4138 13.195 11.4462 13.2711 11.4454 13.4551C11.4406 14.741 11.441 16.0268 11.4413 17.3126V17.3133C11.4414 17.742 11.4415 18.1707 11.4415 18.5994C11.4415 19.0054 11.4413 19.4113 11.4411 19.8172ZM11.6148 10.3682C11.9407 9.0907 11.0473 8.00145 9.67214 8C8.76631 7.99891 8.04642 8.43508 7.7651 9.15547C7.31436 10.3091 7.99616 11.5027 9.2193 11.7012C10.3708 11.8882 11.3685 11.3329 11.6148 10.3682Z" fill="white"/>
</g>
</svg>
