<svg width="32" height="32" viewBox="0 0 32 32" fill="none" xmlns="http://www.w3.org/2000/svg">
<g id="Link">
<path id="Subtract" fill-rule="evenodd" clip-rule="evenodd" d="M16 32C24.8366 32 32 24.8366 32 16C32 7.16344 24.8366 0 16 0C7.16344 0 0 7.16344 0 16C0 24.8366 7.16344 32 16 32ZM9.0935 22.9065C7.6355 21.4485 7.6355 19.0742 9.0935 17.6163H9.09427L11.8862 14.8245C12.0022 14.7044 12.1614 14.6362 12.3286 14.6354C12.4958 14.6337 12.6557 14.6995 12.7743 14.818C12.892 14.9357 12.9577 15.0964 12.9561 15.2629C12.9553 15.4301 12.8871 15.5892 12.7678 15.7061L9.97588 18.4978C8.99116 19.4818 8.99116 21.0395 9.97588 22.0242C10.9599 23.0089 12.5177 23.0089 13.5024 22.0242L16.4412 19.0855C17.426 18.1015 17.426 16.5438 16.4412 15.5592C16.3219 15.4423 16.2537 15.2832 16.2529 15.1159C16.2513 14.9495 16.317 14.7888 16.4356 14.6711C16.5533 14.5534 16.7132 14.4876 16.8804 14.4884C17.0469 14.4893 17.2068 14.5574 17.3229 14.6776C18.7809 16.1356 18.7809 18.5099 17.3229 19.9679L14.384 22.9065C12.926 24.3645 10.5515 24.3645 9.0935 22.9065ZM14.6779 17.3224C13.2199 15.8644 13.2199 13.4901 14.6779 12.0321H14.6771L17.616 9.09348C19.074 7.63555 21.4485 7.63547 22.9065 9.09348C24.3645 10.5515 24.3645 12.9258 22.9065 14.3837L20.1146 17.1755C19.9985 17.2948 19.8394 17.363 19.6722 17.3638C19.5058 17.3654 19.345 17.2997 19.2273 17.1812C19.1096 17.0635 19.0438 16.9027 19.0447 16.7363C19.0455 16.5691 19.1137 16.41 19.233 16.2939L22.0249 13.5022C23.0096 12.5182 23.0096 10.9605 22.0249 9.97581C21.0408 8.99114 19.4831 8.99114 18.4983 9.97581L15.5595 12.9145C14.5748 13.8985 14.5748 15.4562 15.5595 16.4408C15.6789 16.5569 15.747 16.716 15.7479 16.8833C15.7495 17.0505 15.6837 17.2104 15.5652 17.3281C15.4475 17.4466 15.2876 17.5124 15.1203 17.5107C14.9539 17.5099 14.794 17.4417 14.6779 17.3224Z" fill="white"/>
</g>
</svg>
