<svg width="107" height="24" viewBox="0 0 107 24" fill="none" xmlns="http://www.w3.org/2000/svg">
<g id="Logo">
<path id="Vector" d="M68.476 19.8082H59.2339L57.7523 23.8061H51.438L60.398 1.17285H67.3826L76.3425 23.8061H69.9577L68.476 19.8082ZM66.9239 15.5524L63.855 7.26641L60.8213 15.5524H66.9239Z" fill="#532A63"/>
<path id="Vector_2" d="M96.6557 14.1499C97.5255 15.1711 97.9609 16.3372 97.9609 17.6481C97.9609 19.5397 97.2377 21.0389 95.7914 22.1457C94.3451 23.253 92.3283 23.8061 89.7416 23.8061H78.2065V1.17285H89.3537C91.8698 1.17285 93.8392 1.69983 95.2623 2.75267C96.6849 3.80605 97.3964 5.23523 97.3964 7.04076C97.3964 8.37372 97.014 9.4805 96.25 10.3616C95.4855 11.2432 94.4686 11.8557 93.1987 12.1993C94.6329 12.4789 95.7853 13.1293 96.6557 14.1499ZM84.2387 10.3294H88.1896C89.1773 10.3294 89.9357 10.1309 90.4648 9.73289C90.9939 9.33539 91.2585 8.74954 91.2585 7.97576C91.2585 7.20197 90.9939 6.61102 90.4648 6.20248C89.9357 5.79443 89.1773 5.58991 88.1896 5.58991H84.2387V10.3294ZM91.0292 18.7281C91.5815 18.309 91.8582 17.702 91.8582 16.9065C91.8582 16.1116 91.57 15.4879 90.9939 15.0365C90.4174 14.5851 89.6237 14.3595 88.6128 14.3595H84.2387V19.3569H88.6834C89.6942 19.3569 90.4764 19.1473 91.0292 18.7281Z" fill="#532A63"/>
<path id="Vector_3" d="M107 1.20312H100.343V23.7992H107V1.20312Z" fill="#532A63"/>
<path id="Vector_4" d="M0.288078 23.1276L1.41848 23.0628C2.77772 22.9655 3.84077 22.2545 4.36905 20.7669L11.3624 1.81685H8.73484C5.75344 1.81685 3.2784 4.14517 1.25293 7.60523H0.611857L3.34495 1.16992H22.8336L20.998 7.60523H20.3894C20.7976 4.24165 19.8571 1.81685 16.9081 1.81685H14.4396L7.58902 20.4434C7.48353 20.7345 7.41049 21.0255 7.37397 21.2841C7.21492 22.4158 7.80163 23.0303 8.95069 23.0628L10.2239 23.1276L9.93745 23.8062H0L0.288078 23.1276Z" fill="#532A63"/>
<path id="Vector_5" d="M36.3021 16.7562C37.0643 11.3322 41.4207 7.16895 46.5311 7.16895C49.2652 7.16895 50.9675 8.48333 50.6668 10.621C50.2787 13.3816 46.733 15.4525 39.1506 16.6029C38.8836 19.4303 39.9095 21.8629 42.9682 21.8629C44.7596 21.8629 46.9349 20.9746 48.3307 18.9037H48.8515C47.1252 22.6186 44.5371 23.9989 41.4455 23.9989C38.9022 23.9989 35.6783 21.1938 36.3021 16.7562ZM47.8907 10.2262C48.1223 8.58223 47.4417 7.62961 45.9123 7.62961C42.6246 7.62961 39.7834 12.0993 39.2009 16.012C44.687 15.1896 47.4894 13.0858 47.8907 10.2262Z" fill="#532A63"/>
<path id="Vector_6" d="M35.4253 20.4518C33.8852 22.3807 30.17 23.7165 32.3156 18.9681L34.5574 13.0597C34.8607 12.2801 35.0607 11.5337 35.1565 10.8525C35.467 8.64462 34.581 7.18384 32.1718 7.18384C30.2453 7.18384 28.2238 8.09291 25.9144 10.138L29.696 0L23.8492 1.16866L23.6354 1.70166H23.9557C24.9831 1.70166 25.5481 2.25347 25.3928 3.35697C25.3562 3.61656 25.288 3.87626 25.1783 4.20089L17.96 23.8047H20.9463L25.6023 10.982C27.0053 9.68387 28.8659 8.77491 30.3112 8.77491C31.8848 8.77491 32.3164 9.81336 32.1067 11.3067C32.0108 11.9887 31.7734 12.7675 31.463 13.6115L29.2341 19.4222C28.9366 20.1693 28.7496 20.8179 28.6627 21.4348C28.4441 22.9934 29.0407 24 30.9362 24C32.708 24 34.2018 23.2864 35.9396 20.4518H35.4253Z" fill="#532A63"/>
</g>
</svg>
