<svg width="33" height="24" viewBox="0 0 33 24" fill="none" xmlns="http://www.w3.org/2000/svg">
<path id="&#226;&#128;&#156;" d="M19.3688 22.1805C22.4612 21.8339 25.0383 20.8231 27.0999 19.148C29.1042 17.4729 30.1064 15.6534 30.1064 13.6895C30.1064 12.7653 29.8774 12.0144 29.4192 11.4368C28.9611 10.917 28.3884 10.5126 27.7012 10.2238C27.014 9.99278 26.3841 9.81949 25.8114 9.70397L24.1793 9.18411C21.774 8.43321 20.5714 6.96029 20.5714 4.76534C20.5714 3.37906 21.0296 2.22383 21.9458 1.29964C22.8621 0.433214 24.0934 0 25.6396 0C27.8157 0 29.591 0.924189 30.9654 2.77256C32.2826 4.6787 32.9412 7.13358 32.9412 10.1372C32.9412 13.3141 32.1967 15.9134 30.7077 17.935C29.1615 19.9567 27.3576 21.4296 25.296 22.3538C23.2343 23.3357 21.2586 23.8845 19.3688 24V22.1805ZM0.470573 22.1805C3.56301 21.8339 6.14004 20.8231 8.20167 19.148C10.206 17.4729 11.2082 15.6534 11.2082 13.6895C11.2082 12.7653 10.9791 12.0144 10.521 11.4368C10.0629 10.917 9.49018 10.5126 8.80297 10.2238C8.11576 9.99278 7.48582 9.81949 6.91315 9.70397L5.28103 9.18411C2.8758 8.43321 1.67319 6.96029 1.67319 4.76534C1.67319 3.37906 2.13133 2.22383 3.04761 1.29964C3.96388 0.433214 5.19513 0 6.74135 0C8.91751 0 10.6928 0.924189 12.0672 2.77256C13.3844 4.6787 14.0429 7.13358 14.0429 10.1372C14.0429 13.3141 13.2985 15.9134 11.8095 17.935C10.2633 19.9567 8.45937 21.4296 6.39775 22.3538C4.33612 23.3357 2.3604 23.8845 0.470573 24V22.1805Z" fill="#532A63"/>
</svg>
