<svg width="33" height="24" viewBox="0 0 33 24" fill="none" xmlns="http://www.w3.org/2000/svg">
<path id="&#226;&#128;&#156;" d="M13.5724 1.8195C10.4799 2.16607 7.90289 3.1769 5.84127 4.85199C3.83691 6.52708 2.83473 8.34657 2.83473 10.3105C2.83473 11.2347 3.0638 11.9856 3.52194 12.5632C3.98008 13.083 4.55275 13.4874 5.23996 13.7762C5.92717 14.0072 6.55711 14.1805 7.12979 14.296L8.7619 14.8159C11.1671 15.5668 12.3697 17.0397 12.3697 19.2347C12.3697 20.6209 11.9116 21.7762 10.9953 22.7004C10.0791 23.5668 8.84781 24 7.30159 24C5.12543 24 3.35014 23.0758 1.97572 21.2274C0.658575 19.3213 0 16.8664 0 13.8628C0 10.6859 0.744475 8.08664 2.23343 6.06499C3.77965 4.04332 5.58357 2.5704 7.64519 1.64621C9.70682 0.664263 11.6825 0.115525 13.5724 0V1.8195ZM32.4706 1.8195C29.3782 2.16607 26.8011 3.1769 24.7395 4.85199C22.7351 6.52708 21.733 8.34657 21.733 10.3105C21.733 11.2347 21.962 11.9856 22.4202 12.5632C22.8783 13.083 23.451 13.4874 24.1382 13.7762C24.8254 14.0072 25.4553 14.1805 26.028 14.296L27.6601 14.8159C30.0654 15.5668 31.268 17.0397 31.268 19.2347C31.268 20.6209 30.8098 21.7762 29.8936 22.7004C28.9773 23.5668 27.746 24 26.1998 24C24.0237 24 22.2484 23.0758 20.874 21.2274C19.5568 19.3213 18.8982 16.8664 18.8982 13.8628C18.8982 10.6859 19.6427 8.08664 21.1317 6.06499C22.6779 4.04332 24.4818 2.5704 26.5434 1.64621C28.605 0.664263 30.5808 0.115525 32.4706 0V1.8195Z" fill="#532A63"/>
</svg>
