<svg width="32" height="32" viewBox="0 0 32 32" fill="none" xmlns="http://www.w3.org/2000/svg">
<g id="Youtube">
<path id="Subtract" fill-rule="evenodd" clip-rule="evenodd" d="M16 32C24.8366 32 32 24.8366 32 16C32 7.16344 24.8366 0 16 0C7.16344 0 0 7.16344 0 16C0 24.8366 7.16344 32 16 32ZM24.9348 10.0669C25.2453 10.3779 25.4684 10.764 25.5819 11.1869C25.8699 12.7751 26.0097 14.3863 25.9995 16C26.0097 17.6135 25.8699 19.2245 25.5819 20.8125C25.4695 21.2351 25.2471 21.6209 24.9368 21.9313C24.6266 22.2416 24.2394 22.4656 23.8143 22.5806C22.2544 23 16 23 16 23C16 23 9.74563 23 8.18571 22.5812C7.76075 22.4658 7.37379 22.2418 7.06359 21.9315C6.75338 21.6212 6.53081 21.2355 6.41816 20.8131C6.13011 19.2249 5.99031 17.6137 6.00054 16C5.99019 14.3858 6.1298 12.774 6.41757 11.1852C6.53074 10.762 6.75383 10.3756 7.0646 10.0646C7.3743 9.75462 7.76104 9.53126 8.18571 9.41708C9.74563 9 16 9 16 9C16 9 22.2544 9 23.8172 9.41883C24.2406 9.53389 24.6261 9.7574 24.9348 10.0669ZM19.1898 15.9778L14.0136 13.0127V18.9872L19.1898 15.9778Z" fill="white"/>
</g>
</svg>
